<?xml version="1.0" standalone="no"?>
<!DOCTYPE svg PUBLIC "-//W3C//DTD SVG 1.1//EN" "http://www.w3.org/Graphics/SVG/1.1/DTD/svg11.dtd" >
<svg xmlns="http://www.w3.org/2000/svg">
<metadata>Generated by IcoMoon</metadata>
<defs>
<font id="icomoon" horiz-adv-x="1024">
<font-face units-per-em="1024" ascent="960" descent="-64" />
<missing-glyph horiz-adv-x="1024" />
<glyph unicode="&#x20;" horiz-adv-x="512" d="" />
<glyph unicode="&#xe900;" glyph-name="1" d="M993.713 20.834c-16.738 0-30.326 13.548-30.326 30.287 0 467.771-380.495 848.305-848.266 848.305-16.738 0-30.287 13.588-30.287 30.326 0 16.699 13.548 30.247 30.287 30.247 501.13 0 908.879-407.67 908.879-908.879 0-16.738-13.548-30.287-30.287-30.287zM230.242 51.121c0-63.488-51.633-115.121-115.121-115.121s-115.121 51.633-115.121 115.121c0 63.488 51.633 115.121 115.121 115.121 63.449 0 115.121-51.633 115.121-115.121zM60.613 51.121c0-30.090 24.418-54.587 54.508-54.587s54.548 24.497 54.548 54.587c0 30.090-24.458 54.548-54.548 54.548s-54.508-24.497-54.508-54.548zM84.834 335.951c0 16.699 13.548 30.287 30.287 30.287 173.726 0 315.077-141.351 315.077-315.116 0-16.738-13.548-30.287-30.326-30.287-16.699 0-30.287 13.548-30.287 30.287 0 140.327-114.137 254.503-254.464 254.503-16.738 0-30.287 13.548-30.287 30.326zM84.834 547.998c0 16.699 13.548 30.287 30.287 30.287 290.658 0 527.124-236.465 527.124-527.163 0-16.738-13.509-30.287-30.287-30.287-16.738 0-30.287 13.548-30.287 30.287 0 257.26-209.29 466.59-466.55 466.59-16.738 0-30.287 13.548-30.287 30.287zM115.161 708.529c-16.738 0-30.287 13.548-30.287 30.326 0 16.738 13.548 30.326 30.287 30.326 395.934 0 717.982-322.166 717.982-718.021-0.039-16.778-13.588-30.326-30.287-30.326-16.738 0-30.287 13.548-30.287 30.287 0 362.496-294.951 657.408-657.408 657.408z" />
<glyph unicode="&#xe901;" glyph-name="2" horiz-adv-x="637" d="M52.153-64.212c-28.778 0-52.083 23.481-52.083 52.401v972.376h295.23c188.31 0 341.522-154.094 341.522-343.534s-153.212-343.534-341.522-343.534h-191.064v-285.308c0-28.919-23.34-52.401-52.083-52.401zM104.236 378.297h191.064c130.86 0 237.321 107.096 237.321 238.733s-106.461 238.733-237.321 238.733h-191.064v-477.466z" />
<glyph unicode="&#xe902;" glyph-name="3" horiz-adv-x="1117" d="M-0.186-64.186v807.703h312.785v216.25h492.265v-216.25h312.785v-807.703h-1117.836zM734.627 890.275h-351.791v-146.758h351.791v146.758zM1047.366 674.025h-977.315v-668.719h977.315v668.719zM558.732 609.28c150.295 0 272.524-120.925 272.524-269.591 0-148.713-122.228-269.638-272.524-269.638-150.249 0-272.524 120.925-272.524 269.638 0 148.666 122.275 269.591 272.524 269.591zM558.732 139.543c111.569 0 202.287 89.786 202.287 200.145 0 110.313-90.717 200.099-202.287 200.099-111.523 0-202.24-89.786-202.24-200.099 0-110.359 90.717-200.145 202.24-200.145zM525.498 434.735h70.237v-60.323h60.975v-69.492h-60.975v-60.323h-70.237v60.323h-60.975v69.492h60.975v60.323z" />
<glyph unicode="&#xe903;" glyph-name="4" horiz-adv-x="1071" d="M1004.591 713.402l-66.653 35.188c37.143 64.512 56.785 137.775 56.785 211.875h76.102c0-86.342-22.947-171.799-66.234-247.063zM823.575 809.705c25.879 45.568 39.564 97.28 39.564 149.457h76.102c0-64.279-16.896-128-48.78-184.18l-66.886 34.723zM535.366 686.080c-157.37 0-285.37 122.508-285.37 273.082h76.102c0-110.406 93.929-200.239 209.268-200.239 115.433 0 209.315 89.833 209.315 200.239h76.102c0-150.575-128.047-273.082-285.417-273.082zM131.817 959.162h76.102c0-52.271 13.684-103.936 39.517-149.457l-66.886-34.769c-31.884 56.18-48.733 119.855-48.733 184.227zM66.42 713.402c-43.334 75.217-66.188 160.675-66.188 247.063h76.055c0-74.147 19.642-147.409 56.785-211.875l-66.653-35.188zM195.258 382.324c27.462-3.165 53.807-11.357 77.079-23.459 7.633 47.895 27.741 91.555 59.020 125.999 33.373 36.817 96.256 80.849 206.289 81.455 0.652 0 1.35 0 2.095 0 71.308 0 130.374-21.737 175.476-64.652 43.753-41.612 67.491-97.885 77.591-149.318 27.695 9.728 56.646 12.521 85.178 7.727 48.454-8.099 90.717-37.097 119.017-81.687 26.484-41.751 31.092-94.487 12.567-144.803-17.594-47.988-53.853-86.621-94.58-100.771-4.282-1.489-8.704-2.188-12.986-2.188-15.546 0-30.161 9.169-35.747 23.971-7.215 18.897 2.979 39.796 22.714 46.685 19.27 6.703 38.865 29.37 48.826 56.46 10.892 29.649 8.797 59.811-5.818 82.851-16.756 26.345-40.588 43.334-67.119 47.756-26.391 4.515-54.97-3.863-80.291-23.412-11.311-8.797-27.089-10.566-40.262-4.515-13.219 6.051-21.69 18.804-21.69 32.861 0 45.521-16.012 113.897-61.068 156.765-30.301 28.858-71.354 43.473-121.903 43.473-0.512 0-1.024 0-1.583 0-65.443-0.372-115.665-19.363-149.271-56.367-34.351-37.935-49.897-95.697-41.519-154.577 2.42-17.129-8.099-33.606-25.181-39.284-17.129-5.679-35.98 0.931-45.242 15.825-16.384 26.484-51.991 46.499-90.671 50.921-30.673 3.444-57.949-3.491-74.1-19.316-45.847-44.916-27.369-107.194 0.372-137.076 13.964-15.034 12.567-38.074-3.165-51.433-15.686-13.359-39.75-11.962-53.667 3.072-56.041 60.323-70.609 165.19 2.048 236.311 32.768 32.163 83.084 46.964 137.588 40.727zM314.415 130.746c21.039 0 38.028-16.291 38.028-36.399v-121.763c0-20.108-16.989-36.445-38.028-36.445s-38.074 16.337-38.074 36.445v121.763c0 20.108 17.036 36.399 38.074 36.399zM514.513 229.376c21.039 0 38.074-16.291 38.074-36.399v-220.393c0-20.108-17.036-36.445-38.074-36.445s-38.028 16.337-38.028 36.445v220.393c0 20.108 16.989 36.399 38.028 36.399zM731.415 130.746c21.039 0 38.028-16.291 38.028-36.399v-121.763c0-20.108-16.989-36.445-38.028-36.445s-38.074 16.337-38.074 36.445v121.763c0 20.108 17.036 36.399 38.074 36.399z" />
<glyph unicode="&#xe904;" glyph-name="5" horiz-adv-x="1382" d="M0-64.256v1024.205h1382.4v-1024.205h-1382.4zM1314.918 893.030h-1247.437v-890.368h1247.437v890.368zM482.253 606.618h-352.87v241.408h352.87v-241.408zM414.822 781.107h-218.010v-107.571h218.010v107.571zM305.818 332.8c62.925 0 114.074-50.79 114.074-113.203 0-62.464-51.149-113.254-114.074-113.254s-114.125 50.79-114.125 113.254c0 62.413 51.2 113.203 114.125 113.203zM305.818 173.312c25.702 0 46.643 20.736 46.643 46.285 0 25.498-20.941 46.285-46.643 46.285s-46.643-20.787-46.643-46.285c0-25.549 20.941-46.285 46.643-46.285zM701.44 664.115h-163.891v162.662h163.891v-162.662zM634.010 759.859h-29.030v-28.774h29.030v28.774zM701.44 472.73h-163.891v162.662h163.891v-162.662zM634.010 568.422h-29.030v-28.774h29.030v28.774zM701.44 281.293h-163.891v162.662h163.891v-162.662zM634.010 377.037h-29.030v-28.774h29.030v28.774zM701.44 86.989h-163.891v162.662h163.891v-162.662zM634.010 182.733h-29.030v-28.774h29.030v28.774zM968.858 664.115h-163.891v162.662h163.891v-162.662zM901.376 759.859h-28.979v-28.774h28.979v28.774zM968.858 472.73h-163.891v162.662h163.891v-162.662zM901.376 568.422h-28.979v-28.774h28.979v28.774zM968.858 281.293h-163.891v162.662h163.891v-162.662zM901.376 377.037h-28.979v-28.774h28.979v28.774zM968.858 86.989h-163.891v162.662h163.891v-162.662zM901.376 182.733h-28.979v-28.774h28.979v28.774zM1236.275 664.115h-163.891v162.662h163.891v-162.662zM1168.794 759.859h-28.979v-28.774h28.979v28.774zM1236.275 472.73h-163.891v162.662h163.891v-162.662zM1168.794 568.422h-28.979v-28.774h28.979v28.774zM1236.275 281.293h-163.891v162.662h163.891v-162.662zM1168.794 377.037h-28.979v-28.774h28.979v28.774zM1236.275 86.989h-163.891v162.662h163.891v-162.662zM1168.794 182.733h-28.979v-28.774h28.979v28.774z" />
<glyph unicode="&#xe905;" glyph-name="6" d="M512.369 960.492c-282.255 0-511.918-229.868-511.918-512.451 0-282.542 229.663-512.451 511.918-512.451s511.959 229.908 511.959 512.451c0 282.583-229.704 512.451-511.959 512.451zM861.553 169.718c-22.651 13.271-55.419 28.467-101.827 41.411 18.883 56.525 31.867 123.945 34.652 204.349h163.185c-6.717-92.529-41.411-177.275-96.010-245.76zM479.846 874.353v-165.356c-48.087 1.802-90.849 7.373-128.369 14.95 39.772 80.855 91.873 126.648 128.369 150.405zM479.846 643.83v-163.185h-183.788c2.744 71.639 13.885 131.891 30.392 181.74 44.114-9.544 95.314-16.548 153.395-18.555zM479.846 415.478v-176.005c-56.402-1.925-106.25-8.602-149.504-17.736-18.678 52.142-31.334 116.367-34.284 193.741h183.788zM479.846 174.305v-152.535c-34.734 22.61-83.476 65.208-122.388 138.854 36.004 6.963 76.882 12.001 122.388 13.681zM544.932 21.729v152.74c47.636-1.311 88.801-5.202 123.945-10.813-39.199-75.571-88.842-119.030-123.945-141.926zM544.932 239.596v175.882h183.747c-2.867-75.448-14.909-138.527-32.809-189.932-42.066 7.496-92.324 12.575-150.938 14.049zM544.932 480.645v163.103c60.375 1.475 111.698 6.922 154.542 14.746 15.852-49.070 26.542-108.012 29.204-177.848h-183.747zM544.932 708.874v165.478c36.987-24.125 90.071-70.697 130.048-153.805-36.413-6.103-79.708-10.322-130.048-11.674zM646.308 874.762c67.666-21.34 128.328-58.491 177.889-106.947-18.227-10.076-45.384-22.118-83.804-32.85-27.156 60.989-61.071 106.414-94.085 139.796zM286.679 740.086c-34.611 10.486-62.136 21.791-82.166 31.334 48.865 46.653 107.971 82.575 173.916 103.342-32.072-32.44-65.004-76.268-91.75-134.676zM262.963 678.932c-17.818-55.255-29.901-120.791-32.604-198.287h-163.185c6.554 90.194 39.813 172.851 92.037 240.394 22.774-12.001 57.508-27.771 103.752-42.107zM230.359 415.478c2.867-83.067 16.63-152.289 36.536-209.92-43.622-13.23-77.455-27.853-100.803-39.69-56.32 69.1-92.078 155.361-98.918 249.61h163.185zM291.922 144.773c25.723-52.879 56.484-93.102 86.508-123.412-61.85 19.497-117.596 52.429-164.618 94.863 20.029 9.052 46.244 19.21 78.111 28.549zM735.273 149.852c35.226-9.421 61.399-20.111 80.118-29.573-47.923-44.442-105.267-78.807-169.083-98.918 30.966 31.293 62.751 73.114 88.965 128.492zM794.378 480.645c-2.58 74.875-13.967 138.609-30.802 192.676 48.906 14.008 82.534 30.474 104.612 44.237 50.668-66.929 82.944-148.275 89.375-236.913h-163.185z" />
<glyph unicode="&#xe906;" glyph-name="7" horiz-adv-x="1331" d="M1197.773 360.243h-1064.704c-73.318 0-132.966 59.546-132.966 132.762v334.49c0 73.267 59.648 132.813 132.966 132.813h1064.704c73.318 0 132.966-59.546 132.966-132.813v-334.49c0-73.216-59.648-132.762-132.966-132.762zM1261.926 827.494c0 35.328-28.774 64.102-64.154 64.102h-1064.704c-35.379 0-64.154-28.774-64.154-64.102v-334.49c0-35.328 28.774-64.051 64.154-64.051h1064.704c35.379 0 64.154 28.723 64.154 64.051v334.49zM1147.187 591.565h-963.533c-19.046 0-34.406 15.411-34.406 34.406 0 18.944 15.36 34.355 34.406 34.355h963.533c19.046 0 34.458-15.411 34.458-34.355 0-18.995-15.411-34.406-34.458-34.406zM246.733 551.475h837.376c18.995 0 34.406-15.36 34.406-34.355s-15.411-34.355-34.406-34.355h-837.376c-19.046 0-34.406 15.36-34.406 34.355s15.36 34.355 34.406 34.355zM246.989 121.856c14.234 0 25.805-11.571 25.805-25.805v-47.258c0-33.946 27.648-61.594 61.696-61.594 33.997 0 61.645 27.648 61.645 61.594v181.914c0 14.234 11.571 25.754 25.805 25.754 14.285 0 25.805-11.52 25.805-25.754v-181.914c0-62.362-50.79-113.152-113.254-113.152s-113.306 50.79-113.306 113.152v47.258c0 14.234 11.571 25.805 25.805 25.805zM579.379 256.461c14.285 0 25.805-11.52 25.805-25.754v-203.366c0-14.234-11.52-25.805-25.805-25.805-14.234 0-25.805 11.571-25.805 25.805v203.366c0 14.234 11.571 25.754 25.805 25.754zM751.462 256.461c14.234 0 25.805-11.52 25.805-25.754v-203.366c0-14.234-11.571-25.805-25.805-25.805s-25.805 11.571-25.805 25.805v203.366c0 14.234 11.571 25.754 25.805 25.754zM908.902 256.461c14.234 0 25.805-11.52 25.805-25.754v-181.914c0-33.946 27.648-61.594 61.645-61.594s61.645 27.648 61.645 61.594v47.258c0 14.234 11.571 25.805 25.856 25.805 14.234 0 25.805-11.571 25.805-25.805v-47.258c0-62.362-50.842-113.152-113.306-113.152s-113.254 50.79-113.254 113.152v181.914c0 14.234 11.571 25.754 25.805 25.754z" />
<glyph unicode="&#xe907;" glyph-name="8" horiz-adv-x="1336" d="M847.204 796.828c0 54.049 43.631 97.992 97.235 97.992h121.455c17.675 0 32.1 14.514 32.1 32.367 0 18.12 14.559 32.813 32.545 32.813s32.59-14.692 32.59-32.813c0-54.049-43.631-98.037-97.235-98.037h-121.455c-17.675 0-32.1-14.47-32.1-32.323s14.425-32.367 32.1-32.367h293.933c53.649 0 97.28-43.943 97.28-97.992s-43.631-97.992-97.28-97.992h-226.571c-17.72 0-32.1-14.514-32.1-32.367v-65.18c0-18.12-14.603-32.813-32.59-32.813s-32.59 14.692-32.59 32.813v65.18c0 54.049 43.631 98.037 97.28 98.037h226.571c17.72 0 32.1 14.514 32.1 32.323 0 17.853-14.381 32.367-32.1 32.367h-293.933c-53.604 0-97.235 43.943-97.235 97.992zM1329.419-31.143c0-18.12-14.559-32.857-32.545-32.857h-74.707c-0.267 0-0.579 0-0.846 0-0.312 0-0.579 0-0.846 0h-1107.79c-0.579 0-1.158 0-1.736 0h-78.358c-17.987 0-32.59 14.737-32.59 32.857s14.603 32.813 32.59 32.813h46.659v101.421c0 143.004 55.608 277.816 156.627 379.592 87.174 87.841 198.745 141.624 318.865 154.713v50.176c0 62.152 50.176 112.685 111.839 112.685s111.839-50.532 111.839-112.685v-50.221c20.257-2.226 40.381-5.61 60.193-10.151 17.542-4.051 28.538-21.638 24.531-39.313s-21.459-28.761-39.001-24.71c-33.881 7.747-68.742 11.709-103.602 11.709h-107.921c-258.182 0-468.235-211.656-468.235-471.797v-101.421h1044.346v101.421c0 128.579-50.933 248.966-143.449 339.033-12.956 12.6-13.312 33.347-0.801 46.392 12.466 13.045 33.124 13.401 46.035 0.846 105.338-102.534 163.395-239.75 163.395-386.271v-101.421h42.919c18.031 0 32.59-14.692 32.59-32.813zM619.921 640.557h93.318v47.015c0 25.956-20.925 47.059-46.659 47.059s-46.659-21.103-46.659-47.059v-47.015zM206.091 108.477c-1.247-18.076 12.288-33.747 30.275-35.039 0.757-0.045 1.514-0.045 2.271-0.045 16.963 0 31.254 13.223 32.456 30.542 13.312 193.135 168.559 344.42 353.458 344.42 17.987 0 32.545 14.692 32.545 32.857 0 18.12-14.559 32.813-32.545 32.813-219.002 0-402.788-178.131-418.46-405.549z" />
<glyph unicode="&#xe908;" glyph-name="9" horiz-adv-x="1512" d="M1188.864-63.951c-93.428 0-187.977 68.267-187.977 198.705v647.266c0 75.678-57.051 109.519-113.615 109.519s-113.615-33.841-113.615-109.519v-647.266c0-129.414-90.161-197.096-179.298-197.096-89.039 0-179.249 67.682-179.249 197.096v647.266c0 74.557-52.76 107.959-105.033 107.959s-104.984-33.402-104.984-107.959v-357.815h-205.434v68.364h136.972v289.451c0 115.761 87.235 176.323 173.446 176.323s173.495-60.562 173.495-176.323v-647.266c0-88.942 55.686-128.731 110.787-128.731 55.198 0 110.836 39.79 110.836 128.731v647.266c0 116.834 91.575 177.932 182.077 177.932s182.077-61.099 182.077-177.932v-647.266c0-89.527 61.928-130.341 119.515-130.341 58.319 0 117.224 40.326 117.224 130.341v357.815h205.434v-68.364h-136.972v-289.451c0-130.438-93.428-198.705-185.685-198.705z" />
<glyph unicode="&#xe909;" glyph-name="10" horiz-adv-x="883" d="M815.351 154.5c-1.201-0.671-1.977-1.871-1.977-3.213v-139.652c0-41.878-34.463-75.847-76.977-75.847h-73.551c-40.36 0-73.092 32.238-73.092 71.998v145.443c-42.266 22.422-69.667 66.383-69.667 114.511v103.636c0 71.927 59.145 130.225 132.131 130.225h98.728c72.845 0 131.884-58.403 132.096-129.977v-103.671c0-47.386-26.553-90.748-67.69-113.452zM831.241 367.775c0 45.692-37.606 82.767-84.003 82.767h-94.844c-44.209 0-80.049-35.346-80.049-78.919v-103.883c0-32.486 20.551-61.934 51.412-73.516 9.746-3.637 18.044-14.159 18.044-24.435v-148.727c0-18.644 15.36-33.792 34.286-33.792h47.069c21.080 0 38.206 16.843 38.206 37.641v143.784c0 10.982 8.898 22.14 19.244 26.236 30.155 11.864 50.211 40.96 50.211 73.022h0.424v99.822zM705.607 522.187c-55.119 0-99.964 44.209-99.964 98.551 0 54.307 44.844 98.516 99.964 98.516 55.084 0 99.964-44.209 99.964-98.516 0-54.343-44.879-98.551-99.964-98.551zM705.607 668.69c-26.836 0-48.658-21.504-48.658-47.951s21.822-47.951 48.658-47.951c26.836 0 48.658 21.504 48.658 47.951s-21.822 47.951-48.658 47.951zM400.137 258.807v-219.418c0-57.132-47.139-103.601-105.119-103.601h-120.232c-57.98 0-105.119 46.468-105.119 103.601v219.207c-42.266 22.387-69.667 66.348-69.667 114.511v166.841c0 71.821 59.251 130.225 132.096 130.225h205.612c72.845 0 131.884-58.403 132.096-130.013v-166.841c0-48.163-27.401-92.125-69.667-114.511zM418.004 540.16c0 43.538-35.911 78.919-80.084 78.919h-205.612c-44.173 0-80.084-35.381-80.084-78.919v-167.053c0-32.874 21.045-62.605 52.471-73.905 10.205-3.778 16.984-13.418 16.984-24.082v-235.52c0-28.884 23.799-52.33 53.107-52.33h120.232c29.308 0 53.107 23.446 53.107 52.33v235.732c0 10.664 6.78 20.303 16.984 24.082 31.426 11.299 52.471 41.031 52.471 73.905h0.424v166.841zM234.884 697.574c-73.481 0-133.155 58.827-133.155 131.284 0 72.422 59.674 131.249 133.155 131.249 73.516 0 133.191-58.827 133.191-131.249 0-72.457-59.674-131.284-133.191-131.284zM234.884 908.835c-44.809 0-81.108-35.805-81.108-79.978s36.299-79.978 81.108-79.978c44.844 0 81.143 35.805 81.143 79.978s-36.299 79.978-81.143 79.978z" />
<glyph unicode="&#xe90a;" glyph-name="11" d="M989.006 602.98h-58.457v65.937h-99.818l-3.117 36.552 102.712 198.344h58.68v-188.015h26.045v-46.881h-26.045v-65.937zM930.549 819.757l-1.247 0.178-3.072-5.565-45.279-98.571h49.597v103.958zM623.304 642.872l82.009 103.914c10.908 15.494 18.699 28.939 23.463 40.381s7.123 21.86 7.123 31.254c0 12.822-2.449 23.196-7.435 31.076-4.942 7.836-12.11 11.798-21.459 11.798-9.661 0-17.096-4.808-22.261-14.336-5.12-9.528-7.702-22.083-7.702-37.532h-57.255l-0.401 1.024c-0.579 27.247 7.168 50.399 23.151 69.32 15.939 18.922 37.443 28.405 64.467 28.405 27.514 0 49.018-8.014 64.467-23.953 15.405-15.983 23.151-37.754 23.151-65.313 0-18.477-4.319-35.528-12.956-51.245-8.593-15.716-22.973-36.241-43.097-61.574l-39.268-56.186h101.688v-46.926h-177.686v39.891zM717.468 153.756l-235.965 283.381v290.282h60.861v-268.243l221.852-266.463-46.748-38.957zM60.594 448.134c0-248.832 202.485-451.317 451.317-451.317 248.877 0 451.317 202.485 451.317 451.317h60.861c0-282.401-229.732-512.178-512.178-512.178-282.401 0-512.178 229.777-512.178 512.178 0 282.446 229.777 512.223 512.178 512.223v-60.906c-248.832 0-451.317-202.44-451.317-451.317z" />
<glyph unicode="&#xe90b;" glyph-name="12" horiz-adv-x="931" d="M0.233-63.86v1024.326h930.537v-1024.326h-930.537zM869.329 898.746h-807.657v-900.887h807.657v900.887zM465.501 624.687c158.208 0 286.906-129.35 286.906-288.256 0-158.953-128.698-288.303-286.906-288.303-158.161 0-286.906 129.35-286.906 288.303 0 158.906 128.745 288.256 286.906 288.256zM465.501 109.847c124.323 0 225.466 101.655 225.466 226.583 0 124.881-101.143 226.537-225.466 226.537s-225.466-101.655-225.466-226.537c0-124.928 101.143-226.583 225.466-226.583zM347.695 400.849c-0.838 4.189-1.629 8.145-2.234 11.962-2.048 12.614 6.516 24.483 19.084 26.531 12.335 2.001 24.436-6.563 26.391-19.177 0.559-3.258 1.21-6.703 1.908-10.24 4.049-20.154 9.495-47.756-3.258-79.779-10.24-25.74-10.333-43.846-0.372-71.587 4.282-12.055-1.955-25.321-13.917-29.649-2.56-0.931-5.213-1.35-7.773-1.35-9.449 0-18.292 5.865-21.69 15.313-13.638 38.121-13.359 68.375 0.977 104.495 7.68 19.223 4.189 36.631 0.884 53.481zM454.33 445.766c-1.164 5.772-2.467 11.869-3.677 18.479-2.327 12.567 5.911 24.623 18.432 26.95 12.567 2.42 24.529-5.911 26.857-18.479 1.164-6.237 2.374-12.055 3.491-17.548 6.47-31.185 12.055-58.182-5.027-97.513-19.642-45.242-12.614-64.698-1.955-94.161l1.815-4.934c4.282-12.055-1.908-25.321-13.871-29.649-2.607-0.931-5.26-1.35-7.82-1.35-9.449 0-18.292 5.865-21.69 15.313l-1.722 4.794c-11.776 32.628-24.017 66.327 3.025 128.512 11.217 25.833 8.006 41.332 2.141 69.585zM581.399 388.143c11.683-5.12 16.989-18.758 11.916-30.487-19.689-45.242-12.66-64.698-1.955-94.161l1.815-4.934c4.282-12.055-1.955-25.321-13.917-29.649-2.56-0.931-5.213-1.35-7.773-1.35-9.449 0-18.292 5.865-21.69 15.313l-1.769 4.794c-11.776 32.628-23.971 66.327 3.025 128.512 5.12 11.729 18.758 17.036 30.348 11.962zM559.057 767.116c-19.037 0-34.444 15.5-34.444 34.63 0 19.084 15.407 34.583 34.444 34.583s34.444-15.5 34.444-34.583c0-19.13-15.407-34.63-34.444-34.63zM464.477 767.116c-19.037 0-34.444 15.5-34.444 34.63 0 19.084 15.407 34.583 34.444 34.583s34.444-15.5 34.444-34.583c0-19.13-15.407-34.63-34.444-34.63zM371.945 767.116c-19.037 0-34.444 15.5-34.444 34.63 0 19.084 15.407 34.583 34.444 34.583s34.444-15.5 34.444-34.583c0-19.13-15.407-34.63-34.444-34.63z" />
<glyph unicode="&#xe90c;" glyph-name="13" horiz-adv-x="1975" d="M1741.751 114.395c12.215-18.505 19.675-41.179 19.675-65.755 0-62.245-46.153-112.859-102.912-112.859h-1554.871c-56.759 0-102.985 50.615-102.985 112.859 0 55.881 37.376 102.107 86.162 110.958 1.024 1.902 1.39 3.95 2.633 5.632 453.413 607.525 1294.702 784.823 1676.215 793.673l36.498 0.878 10.24-35.035c55.077-189.513 153.966-598.967 154.99-603.063l7.168-29.989-232.814-177.298zM1731.365 862.281c-185.49-12.581-1033.874-102.327-1524.151-700.782h1238.821c26.258 0 47.543-21.211 47.543-47.323 0-26.185-21.285-47.397-47.543-47.397h-1342.391c-1.902-0.366-7.973-6.656-7.973-18.139s6.071-17.774 8.046-18.139h1554.798c1.829 0.439 7.899 6.729 7.899 18.139 0 8.923-3.438 13.678-5.925 16.018-0.073 0-0.146-0.073-0.219-0.073-3.291 0-6.363 1.536-9.655 2.194h-62.025c-26.258 0-47.543 21.211-47.543 47.397 0 26.112 21.285 47.323 47.543 47.323h58.441l220.672 168.009c-22.089 90.917-90.039 367.543-136.338 532.773zM1499.502 455.534v72.119h-213.797v-36.571h102.912c19.675 0 35.694-15.945 35.694-35.547s-16.018-35.474-35.694-35.474h-356.279c-17.481 0-32.402 12.581-35.182 29.769-7.534 46.007-21.358 125.367-26.624 142.336-5.705 18.725 4.827 38.546 23.552 44.325 220.453 67.803 486.4 122.441 625.298 148.919 18.286 3.291 36.645-7.973 41.253-26.258 21.797-86.967 71.534-295.424 71.534-295.424 2.487-10.533 0-21.723-6.729-30.208s-17.042-13.458-27.941-13.458h-162.377c-19.675 0-35.621 15.872-35.621 35.474zM1570.743 563.127v-72.046h81.627c-13.312 55.589-36.571 152.283-52.736 218.185-136.265-26.624-359.058-73.655-552.887-131.072 5.413-27.136 11.557-62.245 15.799-87.113h151.918v72.046c0 19.602 15.945 35.547 35.621 35.547h285.038c19.675 0 35.621-15.945 35.621-35.547z" />
<glyph unicode="&#xe90d;" glyph-name="14" d="M996.229 337.326h-25.969v-246.333c0-85.484-68.362-154.993-152.371-154.993h-612.106c-84.009 0-152.371 69.509-152.371 154.993v246.333h-25.928c-15.442 0-27.894 12.739-27.894 28.385s12.452 28.344 27.894 28.344h968.745c15.401 0 27.853-12.698 27.853-28.344s-12.452-28.385-27.853-28.385zM914.514 337.326h-805.356v-246.333c0-54.19 43.336-98.263 96.625-98.263h612.106c53.248 0 96.625 44.073 96.625 98.263v246.333zM803.267 500.961c-42.025 0-76.227-34.775-76.227-77.537h-41.82c0 42.762-34.202 77.537-76.227 77.537s-76.227-34.775-76.227-77.537h-41.82c0 42.762-34.243 77.537-76.268 77.537s-76.268-34.775-76.268-77.537h-41.82c0 42.762-34.161 77.537-76.227 77.537-42.025 0-76.227-34.775-76.227-77.537h-41.82c0 63.16 48.374 114.565 109.322 119.194h-12.165c0 66.232 52.961 120.136 118.047 120.136 40.264 0 75.858-20.726 97.157-52.142 21.34 31.416 56.893 52.142 97.157 52.142 40.305 0 75.858-20.726 97.157-52.142 21.299 31.416 56.893 52.142 97.157 52.142 65.085 0 118.047-53.903 118.047-120.136h-12.165c60.948-4.628 109.322-56.033 109.322-119.194h-41.82c0 42.762-34.202 77.537-76.268 77.537zM393.789 542.618c0 42.762-34.243 77.578-76.268 77.578s-76.227-34.816-76.227-77.578h-12.165c36.577-2.785 68.649-22.118 88.392-51.2 19.743 29.082 51.814 48.415 88.392 51.2h-12.124zM588.063 542.618c0 42.762-34.202 77.578-76.227 77.578s-76.227-34.816-76.227-77.578h-12.165c36.577-2.785 68.649-22.118 88.392-51.2 19.743 29.082 51.814 48.415 88.392 51.2h-12.165zM782.377 542.618c0 42.762-34.202 77.578-76.227 77.578s-76.268-34.816-76.268-77.578h-12.165c36.618-2.785 68.69-22.118 88.433-51.2 19.702 29.082 51.773 48.415 88.392 51.2h-12.165zM887.316 561.541c-16.548 0-29.983 13.64-29.983 30.515 0 16.835 13.435 30.515 29.983 30.515 16.589 0 30.024-13.681 30.024-30.515 0-16.876-13.435-30.515-30.024-30.515zM690.34 752.087c-56.402 0-102.277 46.653-102.277 104.038 0 57.344 45.875 104.038 102.277 104.038 56.361 0 102.236-46.694 102.236-104.038 0-57.385-45.875-104.038-102.236-104.038zM690.34 917.606c-33.341 0-60.457-27.566-60.457-61.481s27.116-61.481 60.457-61.481c33.3 0 60.416 27.566 60.416 61.481s-27.116 61.481-60.416 61.481zM550.748 702.976c-14.131 0-25.6 11.674-25.6 26.092 0 14.377 11.469 26.051 25.6 26.051 14.172 0 25.641-11.674 25.641-26.051 0-14.418-11.469-26.092-25.641-26.092zM341.647 701.256c-39.526 0-71.639 32.727-71.639 72.909s32.113 72.868 71.639 72.868c39.485 0 71.639-32.686 71.639-72.868s-32.154-72.909-71.639-72.909zM341.647 804.475c-16.466 0-29.819-13.599-29.819-30.31 0-16.753 13.353-30.351 29.819-30.351 16.425 0 29.819 13.599 29.819 30.351 0 16.712-13.394 30.31-29.819 30.31zM133.243 574.444c-15.114 0-27.32 12.452-27.32 27.771 0 15.36 12.206 27.812 27.32 27.812 15.073 0 27.32-12.452 27.32-27.812 0-15.319-12.247-27.771-27.32-27.771z" />
<glyph unicode="&#xe90e;" glyph-name="15" horiz-adv-x="931" d="M0.465-63.628v1023.395h930.537v-1023.395h-930.537zM869.562 898.095h-807.657v-900.049h807.657v900.049zM465.734 624.268c158.208 0 286.906-129.21 286.906-287.977 0-158.813-128.698-287.977-286.906-287.977-158.161 0-286.906 129.164-286.906 287.977 0 158.767 128.745 287.977 286.906 287.977zM465.734 109.94c88.576 0 165.143 51.665 202.007 126.417-11.217-4.049-23.133-6.656-35.747-6.656-33.839 0-63.674 16.291-83.13 41.1-19.456-24.809-49.292-41.1-83.13-41.1s-63.674 16.291-83.13 41.1c-19.456-24.809-49.292-41.1-83.13-41.1-12.614 0-24.529 2.607-35.7 6.656 36.817-74.752 113.385-126.417 201.961-126.417zM240.966 322.886c6.097-26.81 29.929-46.918 58.508-46.918 33.14 0 60.090 27.043 60.090 60.323h46.080c0-33.28 26.95-60.323 60.090-60.323s60.090 27.043 60.090 60.323h46.080c0-33.28 26.95-60.323 60.090-60.323 28.579 0 52.41 20.108 58.508 46.918 0.279 4.468 0.698 8.89 0.698 13.405 0 124.788-101.143 226.304-225.466 226.304s-225.466-101.516-225.466-226.304c0-4.515 0.419-8.937 0.698-13.405zM559.29 766.557c-19.037 0-34.444 15.5-34.444 34.583 0 19.13 15.407 34.583 34.444 34.583s34.444-15.453 34.444-34.583c0-19.084-15.407-34.583-34.444-34.583zM464.71 766.557c-19.037 0-34.444 15.5-34.444 34.583 0 19.13 15.407 34.583 34.444 34.583s34.444-15.453 34.444-34.583c0-19.084-15.407-34.583-34.444-34.583zM372.177 766.557c-19.037 0-34.444 15.5-34.444 34.583 0 19.13 15.407 34.583 34.444 34.583s34.444-15.453 34.444-34.583c0-19.084-15.407-34.583-34.444-34.583z" />
<glyph unicode="&#xe90f;" glyph-name="16" horiz-adv-x="1479" d="M1349.348 187.733v622.023c0 82.887-69.518 150.414-154.965 150.414h-910.108c-85.447 0-154.965-67.527-154.965-150.414v-622.023h-129.82v-123.847c0-70.372 58.937-127.602 131.413-127.602h1216.853c72.476 0 131.413 57.23 131.413 127.602v123.847h-129.82zM198.599 809.756c0 45.852 38.4 83.115 85.675 83.115h910.108c47.218 0 85.675-37.262 85.675-83.115v-622.023h-1081.458v622.023zM1409.877 63.886c0-33.28-27.876-60.359-62.123-60.359h-1216.853c-34.247 0-62.123 27.079-62.123 60.359v56.548h409.828v-8.078c0-33.337 27.876-60.359 62.18-60.359h397.084c34.304 0 62.18 27.022 62.18 60.359v8.078h409.828v-56.548z" />
<glyph unicode="&#xe910;" glyph-name="17" horiz-adv-x="1022" d="M1011.351 822.543c-36.683 42.044-117.82 59.814-205.463 65.476-13.011 41.382-52.224 71.499-99.81 71.499-48.851 0-88.486-31.383-100.653-74.451-44.634-3.373-102.701-10.24-103.966-10.24l-466.281-76.137c-34.153-6.686-44.454-38.852-30.419-62.886l178.658-286.72c17.408-23.371 51.381-27.347 69.572-2.048l275.095 344.787c29.756 3.735 60.597 6.686 91.016 8.794 10.662-15.48 25.781-28.070 43.189-35.96v-87.642h-67.524c-91.437 0-167.755-76.077-167.755-167.273v-530.071c0-23.793 19.516-43.49 43.61-43.49h470.498c23.913 0 41.261 19.456 41.261 43.49v530.071c0 91.196-76.318 167.273-167.695 167.273h-65.416v87.401c18.854 8.373 34.816 21.986 45.719 39.334 74.391-3.795 132.096-15.059 150.528-35.539 18.251-15.059 38.792-16.986 61.44-6.505 17.348 15.24 19.456 43.49 4.397 60.838zM224.678 546.726l-113.182 180.284 293.948 47.887-180.766-228.171zM814.863 592.324c45.719 0 82.824-36.984 82.824-82.583v-488.629h-383.458v488.629c0 45.598 37.105 82.583 82.824 82.583h217.811z" />
<glyph unicode="&#xe911;" glyph-name="18" horiz-adv-x="1479" d="M1400.889 326.77c-6.428 9.387-14.905 16.839-24.178 23.097h-458.752l-106.61 54.784h461.653l-533.675 274.204-533.618-274.204h461.71l-106.61-54.784h-458.24c-7.054-5.177-13.653-11.036-19.001-18.091l-27.193-36.181-55.922 44.772 27.193 36.181c14.62 19.456 33.621 35.499 54.955 46.421l639.716 328.761v44.772c-36.124 5.575-64.057 39.993-64.057 81.408 0 45.284 33.394 82.148 74.411 82.148h29.696c41.017 0 74.411-36.864 74.411-82.148v-22.812h-35.442v22.812c0 25.145-17.465 45.625-38.969 45.625h-29.696c-21.504 0-39.026-20.48-39.026-45.625 0-25.202 17.522-45.625 39.026-45.625h25.031v-81.237l641.934-329.842c23.438-12.060 43.918-30.151 59.051-52.281l20.48-29.867-57.799-42.155-20.48 29.867zM82.603 63.317l639.716 328.761v44.828c-36.124 5.575-64.057 39.936-64.057 81.351 0 45.34 33.394 82.204 74.411 82.204h29.696c41.017 0 74.411-36.864 74.411-82.204v-22.812h-35.442v22.812c0 25.202-17.465 45.682-38.969 45.682h-29.696c-21.504 0-39.026-20.48-39.026-45.682 0-25.145 17.522-45.625 39.026-45.625h25.031v-81.237l641.934-329.842c23.438-12.060 43.918-30.094 59.051-52.281l20.48-29.81-57.799-42.212-20.48 29.867c-6.428 9.387-14.905 16.839-24.178 23.097h-1274.14c-7.054-5.177-13.653-11.036-19.001-18.091l-27.193-36.181-55.922 44.772 27.193 36.181c14.62 19.456 33.621 35.499 54.955 46.421zM1273.003 44.999l-533.675 274.261-533.618-274.261h1067.292z" />
<glyph unicode="&#xe912;" glyph-name="19" horiz-adv-x="1536" d="M805.376 52.032v-42.496h286.72c20.736 0 37.568-16.448 37.568-36.672 0-20.288-16.832-36.672-37.568-36.672h-648.512c-20.736 0-37.568 16.384-37.568 36.672 0 20.224 16.832 36.672 37.568 36.672h286.656v42.496h-730.304v907.968h1535.808v-907.968h-730.368zM1460.608 886.656h-1385.6v-761.28h1385.6v761.28zM437.888 671.040h244.608c20.736 0 37.568-16.448 37.568-36.672 0-20.288-16.832-36.736-37.568-36.736h-84.736v-220.032c0-20.224-16.832-36.672-37.568-36.672s-37.568 16.448-37.568 36.672v220.032h-84.736c-20.8 0-37.568 16.448-37.568 36.736 0 20.224 16.768 36.672 37.568 36.672zM834.752 652.288l115.136-199.872 115.2 199.872c10.112 17.664 32.96 24 51.136 14.016 18.112-9.92 24.512-32.32 14.272-49.92l-147.84-256.768c-6.656-11.52-19.2-18.688-32.768-18.688s-26.048 7.168-32.704 18.688l-147.904 256.768c-10.176 17.6-3.776 40 14.336 49.92 18.112 9.984 40.896 3.648 51.136-14.016z" />
<glyph unicode="&#xe913;" glyph-name="20" d="M-0.269-63.731v1023.731h1024.647v-1023.731h-1024.647zM967.249 902.925h-910.336v-909.581h910.336v909.581zM284.079 873.553c99.49 0 180.44-80.842 180.44-180.224 0-99.436-80.95-180.278-180.44-180.278-99.436 0-180.386 80.842-180.386 180.278 0 99.382 80.95 180.224 180.386 180.224zM284.079 570.179c67.961 0 123.257 55.242 123.257 123.149s-55.296 123.149-123.257 123.149c-67.961 0-123.203-55.242-123.203-123.149s55.242-123.149 123.203-123.149zM284.079 431.508c64.027 0 116.143-52.062 116.143-116.035s-52.116-115.981-116.143-115.981c-64.027 0-116.089 52.008-116.089 115.981s52.062 116.035 116.089 116.035zM284.079 256.566c32.552 0 58.961 26.462 58.961 58.907 0 32.499-26.408 58.907-58.961 58.907-32.499 0-58.907-26.408-58.907-58.907 0-32.445 26.408-58.907 58.907-58.907zM336.95 117.679c21.935 0 39.72-17.785 39.72-39.72s-17.785-39.72-39.72-39.72c-21.989 0-39.774 17.785-39.774 39.72s17.785 39.72 39.774 39.72zM453.686 117.679c21.935 0 39.774-17.785 39.774-39.72s-17.839-39.72-39.774-39.72c-21.935 0-39.774 17.785-39.774 39.72s17.839 39.72 39.774 39.72zM570.422 117.679c21.989 0 39.774-17.785 39.774-39.72s-17.785-39.72-39.774-39.72c-21.935 0-39.72 17.785-39.72 39.72s17.785 39.72 39.72 39.72zM740.029 463.629c81.758 0 148.264-66.452 148.264-148.157 0-81.651-66.506-148.103-148.264-148.103s-148.264 66.452-148.264 148.103c0 81.704 66.506 148.157 148.264 148.157zM740.029 224.445c50.23 0 91.082 40.852 91.082 91.028 0 50.23-40.852 91.028-91.082 91.028s-91.082-40.798-91.082-91.028c0-50.176 40.852-91.028 91.082-91.028zM687.212 117.679c21.935 0 39.774-17.785 39.774-39.72s-17.839-39.72-39.774-39.72c-21.935 0-39.774 17.785-39.774 39.72s17.839 39.72 39.774 39.72zM740.029 513.051c-99.49 0-180.386 80.842-180.386 180.278 0 99.382 80.896 180.224 180.386 180.224s180.386-80.842 180.386-180.224c0-99.436-80.896-180.278-180.386-180.278zM740.029 816.478c-67.961 0-123.257-55.242-123.257-123.149s55.296-123.149 123.257-123.149c67.961 0 123.257 55.242 123.257 123.149s-55.296 123.149-123.257 123.149z" />
<glyph unicode="&#xe914;" glyph-name="21" horiz-adv-x="1295" d="M1250.951 274.621l-100.298-66.614c-16.761-153.762-232.017-271.791-502.407-271.791-270.336 0-485.592 118.029-502.407 271.791l-100.298 66.614c-35.571 23.66-52.062 66.991-41.122 107.897l66.506 249.317c10.833 40.691 38.804 75.075 76.8 94.262l432.236 218.166c42.146 21.288 94.531 21.288 136.623 0l432.182-218.166c37.942-19.187 65.967-53.517 76.854-94.262l66.506-249.371c10.887-40.906-5.659-84.237-41.176-107.843zM648.246 0.189c226.035 0 419.085 94.531 436.979 209.866-65.105 16.492-240.155 55.673-436.979 55.673-197.039 0-371.928-39.181-436.925-55.673 17.893-115.335 210.998-209.866 436.925-209.866zM1163.102 615.505c-6.198 23.175-22.151 42.685-43.763 53.571l-432.236 218.22c-11.965 6.036-25.384 9.27-38.858 9.27-13.42 0-26.893-3.234-38.912-9.27l-432.182-218.166c-21.612-10.941-37.511-30.451-43.709-53.625l-66.506-249.317c-3.88-14.605 1.994-30.019 14.659-38.481l110.053-73.081c60.847 16.007 244.143 59.123 456.596 59.123 212.507 0 395.803-43.116 456.596-59.123l110.053 73.081c12.665 8.408 18.594 23.875 14.713 38.481l-66.506 249.317zM655.252 421.053c-2.21-0.916-4.635-1.347-7.006-1.347s-4.743 0.431-7.006 1.347c-117.976 46.727-136.947 149.827-158.936 269.15-1.024 5.336 0.377 10.779 3.827 14.983 3.395 4.258 8.515 6.791 13.959 6.952 54.757 1.994 117.814 31.582 133.659 50.553 7.168 8.569 21.881 8.569 29.049 0 15.791-18.971 78.902-48.559 133.605-50.553 5.443-0.162 10.563-2.695 13.959-6.952 3.449-4.204 4.851-9.647 3.88-14.983-21.989-119.323-41.014-222.424-158.989-269.15zM648.246 725.504c-27.702-21.288-77.393-42.253-125.144-48.667 21.073-110.7 42.253-182.11 125.144-218.328 82.944 36.217 104.125 107.628 125.197 218.328-47.751 6.413-97.442 27.379-125.197 48.667z" />
<glyph unicode="&#xe915;" glyph-name="22" horiz-adv-x="1297" d="M-0.205-63.727v1023.932h1297.545v-1023.932h-1297.545zM1216.717 879.65h-1136.299v-862.754h1136.299v862.754zM331.571 702.635c117.077 4.301 252.041 68.335 285.901 109.363 15.36 18.569 46.831 18.569 62.191 0 33.86-41.028 168.755-105.062 285.901-109.363 11.674-0.41 22.528-5.939 29.901-15.019 7.305-9.148 10.308-20.958 8.192-32.495-47.036-258.185-87.723-481.143-340.105-582.383-4.779-1.911-9.899-2.867-15.019-2.867-5.052 0-10.172 0.956-14.95 2.867-252.45 101.239-293.069 324.198-340.173 582.383-2.116 11.537 0.956 23.347 8.26 32.495 7.305 9.079 18.227 14.609 29.901 15.019zM648.533 153.907c177.425 78.302 222.754 232.858 267.81 472.269-102.127 13.926-208.418 59.255-267.81 105.267-59.324-46.012-165.615-91.341-267.81-105.267 45.124-239.411 90.385-393.967 267.81-472.269zM786.91 560.026c9.694-7.373 11.537-21.163 4.164-30.857l-136.806-179.405c-3.618-4.847-9.148-7.919-15.155-8.533-0.751-0.068-1.57-0.137-2.321-0.137-5.257 0-10.308 1.843-14.336 5.257l-79.531 68.062c-9.284 7.919-10.377 21.777-2.458 31.061 7.919 9.216 21.777 10.308 31.061 2.389l61.85-52.907 122.675 160.905c7.373 9.626 21.163 11.537 30.857 4.164z" />
<glyph unicode="&#xe916;" glyph-name="23" horiz-adv-x="878" d="M599.771 691.127c-14.921 15.872-32.768 28.306-51.566 39.058v76.8h-64.805v62.318h79.872v91.282h-250.075l-110.811-40.082 34.523-85.285 94.135 34.085h55.881v-62.318h-64.805v-75.41c-18.725-10.313-36.571-22.309-51.639-37.522-123.611-125.221-271.067-319.927-271.067-535.991 0-122.222 105.033-221.696 234.203-221.696h410.112c125.806 0 230.839 94.72 234.057 211.163 5.486 199.241-148.187 405.577-278.016 543.598zM643.73 27.648h-410.112c-75.995 0-137.801 58.514-137.801 130.414 0 186.295 133.339 360.375 245.175 473.6 24.43 24.722 57.563 38.4 93.257 38.4 36.206 0 69.413-14.117 93.403-39.643 96.914-102.912 258.706-302.153 253.659-480.475-1.829-67.438-63.561-122.295-137.582-122.295z" />
<glyph unicode="&#xe917;" glyph-name="24" horiz-adv-x="1084" d="M841.005 344.215c-134.024 0-243.17 110.17-243.17 245.579s109.146 245.579 243.17 245.579c134.084 0 243.23-110.17 243.23-245.579s-109.146-245.579-243.23-245.579zM841.005 774.716c-100.894 0-183.055-82.944-183.055-184.922 0-101.918 82.161-184.862 183.055-184.862 100.954 0 183.115 82.944 183.115 184.862 0 101.978-82.161 184.922-183.115 184.922zM841.005 439.748c-81.92 0-148.54 67.343-148.54 150.046 0 16.745 13.432 30.359 30.057 30.359s30.057-13.613 30.057-30.359c0-49.272 39.695-89.329 88.425-89.329 16.625 0 30.057-13.553 30.057-30.359 0-16.745-13.432-30.359-30.057-30.359zM313.645-63.578c-172.996 0-313.766 142.155-313.766 316.898s140.77 316.958 313.766 316.958c173.056 0 313.826-142.216 313.826-316.958s-140.77-316.898-313.826-316.898zM313.645 509.56c-139.866 0-253.711-114.929-253.711-256.241 0-141.252 113.845-256.241 253.711-256.241 139.927 0 253.771 114.989 253.771 256.241 0 141.312-113.845 256.241-253.771 256.241zM499.772 222.961c-16.565 0-30.057 13.613-30.057 30.359 0 86.92-69.993 157.636-156.070 157.636-16.565 0-29.997 13.613-29.997 30.359s13.432 30.359 29.997 30.359c119.206 0 216.184-97.943 216.184-218.353 0-16.745-13.432-30.359-30.057-30.359zM314.609 654.848c-83.305 0-151.070 68.427-151.070 152.516 0 84.149 67.765 152.576 151.070 152.576 83.245 0 151.010-68.427 151.010-152.576 0-84.088-67.765-152.516-151.010-152.516zM314.609 899.223c-50.116 0-90.955-41.201-90.955-91.859 0-50.598 40.84-91.799 90.955-91.799s90.895 41.201 90.895 91.799c0 50.658-40.779 91.859-90.895 91.859z" />
<glyph unicode="&#xe918;" glyph-name="25" horiz-adv-x="1385" d="M1365.896 875.671c-34.093-6.987-74.391-32.828-87.040-42.165-21.022-17.769-75.716-37.527-134.867-48.188-44.152-7.891-55.176-17.167-81.98-39.394l-10.541-8.794c-4.819-3.915-10.662-5.843-16.444-5.843-7.349 0-14.697 3.132-19.757 9.156-9.096 10.782-7.59 26.805 3.313 35.72l10.24 8.493c29.094 24.215 48.309 40.237 105.954 50.598 58.79 10.541 100.894 28.491 111.917 37.768 3.494 2.65 56.561 41.623 108.785 52.284 13.975 2.771 27.528-5.963 30.359-19.697 2.891-13.734-6.024-27.106-19.938-29.937zM1111.944 866.334c-44.092-7.951-55.176-17.167-81.98-39.454l-10.481-8.734c-4.819-3.915-10.662-5.843-16.444-5.843-7.409 0-14.697 3.132-19.817 9.156-9.096 10.782-7.59 26.744 3.373 35.72l10.18 8.433c29.094 24.275 48.309 40.237 105.894 50.658 58.79 10.541 100.894 28.491 112.038 37.768 10.722 9.096 27.046 7.891 36.262-2.831 9.216-10.662 7.891-26.684-2.891-35.72-22.347-18.733-77.041-38.49-136.132-49.152zM495.074 242.658c26.082-25.781 70.054-60.717 145.468-105.653 24.094-14.396 38.731-38.008 41.201-66.44 3.192-36.623-15.059-78.728-45.417-104.689-22.347-19.155-53.609-29.696-88.004-29.696-29.997 0-59.091 8.011-82.040 22.588-62.404 39.695-151.672 106.195-218.955 225.28-101.978 19.275-187.814 87.642-226.726 186.007-30.78 77.944-27.226 165.768 9.758 241.062 37.045 75.234 104.809 132.457 185.946 156.853l3.614 0.843 678.37 127.458 129.687-327.981-532.902-325.632zM503.447 15.571c24.275-15.36 68.969-14.878 87.944 1.385 13.854 11.866 23.371 32.467 22.046 47.827-0.783 8.674-4.698 12.107-8.433 14.336-77.041 45.899-133.963 88.666-169.864 127.337-9.035-4.216-18.191-7.831-27.528-11.083-2.47-0.904-5-1.566-7.529-2.349-7.409-2.409-14.818-4.578-22.347-6.385-3.554-0.843-7.168-1.566-10.782-2.289-6.686-1.385-13.432-2.47-20.239-3.373-3.735-0.542-7.469-1.024-11.204-1.385-1.807-0.181-3.554-0.542-5.361-0.663 54.935-81.378 120.109-129.566 173.297-163.358zM855.1 819.351l-620.424-116.616c-63.127-19.456-113.724-62.404-142.577-121.133-29.154-59.272-31.804-125.651-7.59-187.031 31.262-78.968 101.376-133.542 184.26-146.131l1.747-0.241c6.325-0.904 12.83-1.024 19.275-1.446 5.903-0.361 11.806-1.144 17.649-1.084 1.205 0 2.409 0.181 3.674 0.181 9.035 0.181 18.010 0.964 26.925 2.168 3.072 0.422 6.024 0.964 9.035 1.506 7.409 1.265 14.758 2.952 22.046 4.939 2.891 0.843 5.783 1.506 8.614 2.409 9.758 3.132 19.396 6.686 28.853 11.023l536.757 328.222-88.245 223.232zM1060.081 705.747c29.033 24.275 48.248 40.237 105.833 50.598 58.85 10.601 100.894 28.491 111.977 37.828 10.782 9.096 26.985 7.831 36.262-2.831 9.216-10.662 7.951-26.624-2.831-35.78-22.287-18.733-76.981-38.43-136.132-49.092-44.092-7.951-55.236-17.167-81.92-39.454l-10.601-8.734c-4.819-3.976-10.662-5.843-16.444-5.843-7.349 0-14.697 3.072-19.817 9.156-9.035 10.722-7.529 26.744 3.373 35.72l10.3 8.433z" />
<glyph unicode="&#xe919;" glyph-name="26" horiz-adv-x="1023" d="M970.449 236.893h-20.247c-27.089-72.634-82.153-136.285-156.695-181.132l9.821-59.159c2.513-15.104-1.699-30.464-11.567-42.147-9.891-11.683-24.32-18.385-39.587-18.385h-34.351c-25.46 0-46.988 18.269-51.177 43.427l-3.863 23.273c-37.841-9.053-76.823-13.615-116.154-13.615-39.377 0-78.383 4.561-116.177 13.568l-3.863-23.226c-4.189-25.158-25.693-43.427-51.177-43.427h-34.327c-15.29 0-29.719 6.703-39.587 18.385-9.891 11.683-14.103 27.043-11.59 42.147l9.798 58.927c-105.705 63.511-170.217 163.793-175.43 272.198-20.736 5.399-47.151 19.968-70.307 42.519-14.429-14.010-25.786-22.784-27.113-23.785-7.261-5.562-17.641-4.143-23.18 3.142-5.562 7.284-4.166 17.687 3.119 23.249 0.14 0.116 11.357 8.751 25.437 22.528-18.781 26.065-31.953 58.764-31.953 97.001 0 33.536 27.229 60.835 60.695 60.835 33.489 0 60.719-27.299 60.719-60.835 0-35.817-22.109-71.075-44.986-97.955 0.326-0.326 0.652-0.628 0.977-0.954 16.407-15.756 33.885-25.903 46.941-30.999 5.911 87.11 49.501 168.145 124.253 230.028 13.777 11.404 28.369 21.923 43.613 31.511-39.54 36.445-62.627 88.343-62.627 142.639 0 106.729 86.644 193.559 193.14 193.559s193.164-86.831 193.164-193.559c0-25.693-5.19-51.27-15.011-74.845 31.86-3.468 63.139-9.984 93.556-19.503 28.602 46.941 78.918 75.543 134.47 75.543 9.146 0 16.547-7.424 16.547-16.57v-140.358c48.454-40.541 84.317-89.949 104.471-143.895h20.247c28.602 0 51.875-23.319 51.875-51.968v-106.17c0-28.672-23.249-51.991-51.875-51.991zM88.576 492.381c0 15.244-12.381 27.648-27.601 27.648-15.197 0-27.578-12.404-27.578-27.648 0-29.463 9.635-53.457 21.83-72.029 21.853 26.694 33.35 51.456 33.35 72.029zM423.005 927.023c-88.25 0-160.047-71.936-160.047-160.372 0-48.57 22.319-94.813 59.997-125.137 19.479 10.193 39.889 18.967 61.021 26.298-28.788 9.844-48.175 30.348-48.175 54.598 0 9.169 7.424 16.593 16.57 16.593s16.547-7.424 16.547-16.593c0-10.589 15.244-22.202 37.539-26.205v54.924c-40.727 5.26-70.656 29.626-70.656 59.764 0 30.161 29.929 54.505 70.656 59.764v2.164c0 9.169 7.401 16.593 16.547 16.593s16.547-7.424 16.547-16.593v-2.164c40.727-5.26 70.656-29.603 70.656-59.764 0-9.169-7.424-16.593-16.57-16.593-9.123 0-16.547 7.424-16.547 16.593 0 10.589-15.244 22.202-37.539 26.205v-54.924c40.727-5.236 70.656-29.603 70.656-59.764 0-10.915-3.956-21.062-10.892-29.836 15.616 1.443 31.395 2.188 47.313 2.188 6.447 0 12.87-0.116 19.27-0.372 11.38 22.528 17.152 46.825 17.152 72.262 0 88.436-71.796 160.372-160.047 160.372zM406.458 784.687v52.41c-22.295-4.003-37.539-15.616-37.539-26.205s15.244-22.202 37.539-26.205zM439.552 748.614v-52.41c22.295 4.003 37.539 15.616 37.539 26.205 0 10.612-15.244 22.202-37.539 26.205zM989.231 395.055c0 10.356-8.425 18.804-18.781 18.804h-31.953c-7.168 0-13.498 4.585-15.732 11.38-17.943 54.551-53.876 104.657-103.936 144.896-3.91 3.142-6.214 7.913-6.214 12.94v130.513c-40.89-5.399-76.451-30.697-95.185-68.701-3.7-7.471-12.358-11.055-20.247-8.332-48.128 16.617-98.793 25.041-150.551 25.041-214.831 0-389.632-143.383-389.632-319.628 0-105.123 63.209-203.59 169.053-263.401 6.074-3.444 9.356-10.31 8.215-17.199l-11.683-70.237c-0.931-5.539 0.559-10.961 4.189-15.244 3.607-4.282 8.704-6.633 14.313-6.633h34.351c9.193 0 16.989 6.609 18.502 15.709l6.842 41.076c0.768 4.631 3.468 8.727 7.424 11.264 3.956 2.513 8.797 3.258 13.335 1.978 40.401-11.241 82.502-16.943 125.091-16.943 42.519 0 84.62 5.702 125.068 16.989 1.466 0.396 2.956 0.605 4.445 0.605 3.119 0 6.214-0.884 8.89-2.607 3.956-2.513 6.656-6.609 7.447-11.264l6.842-41.1c1.513-9.123 9.286-15.709 18.502-15.709h34.351c5.609 0 10.682 2.351 14.313 6.633 3.607 4.305 5.097 9.705 4.189 15.244l-11.729 70.47c-1.14 6.889 2.141 13.731 8.192 17.175 76.428 43.241 131.7 107.124 155.625 179.898 2.234 6.796 8.564 11.404 15.709 11.404h31.977c10.356 0 18.781 8.425 18.781 18.804v106.17zM811.52 396.148c-9.146 0-16.547 7.424-16.547 16.593v35.398c0 9.169 7.401 16.593 16.547 16.593s16.547-7.424 16.547-16.593v-35.398c0-9.169-7.401-16.593-16.547-16.593z" />
<glyph unicode="&#xe91a;" glyph-name="27" horiz-adv-x="751" d="M710.724-63.522v255.59l-64.649-0.614v30.515l105.062 10.786v-296.277h-40.414zM656.862 430.524c-61.713-55.774-148.070-83.627-259.14-83.627h-257.297v-410.419h-140.834v1023.249h398.131c111.070 0 197.427-28.058 259.14-84.309s92.57-130.253 92.57-222.071c0-92.774-30.857-167.049-92.57-222.822zM555.349 793.907c-35.021 37.956-87.518 56.934-157.628 56.934h-257.297v-395.742h257.297c70.519 0 123.221 18.637 158.037 55.91 34.748 37.274 52.156 84.241 52.156 140.902 0 56.73-17.545 104.038-52.565 141.995z" />
<glyph unicode="&#xe91b;" glyph-name="arrow_right" horiz-adv-x="575" d="M62.992-64.438l-61.941 61.941 450.497 450.497-450.497 450.497 61.941 61.941 512.438-512.438-512.438-512.438z" />
<glyph unicode="&#xe91c;" glyph-name="check" horiz-adv-x="1363" d="M1362.866 840.058l-903.945-903.945-3.446 3.446-3.446-3.446-451.972 451.972 119.886 119.886 335.533-335.59 787.505 787.562 119.886-119.886z" />
<glyph unicode="&#xe91d;" glyph-name="date" d="M798.366-64c-43.993 0-84.953 12.839-119.69 34.698h-661.307c-9.61 0-17.369 7.759-17.369 17.369v885.169c0 9.57 7.759 17.329 17.369 17.329h86.764v52.066c0 9.61 7.759 17.369 17.369 17.369h121.462c9.61 0 17.369-7.759 17.369-17.369v-52.066h381.834v52.066c0 9.61 7.759 17.369 17.369 17.369h121.462c9.61 0 17.369-7.759 17.369-17.369v-52.066h86.804c9.57 0 17.329-7.759 17.329-17.329v-511.646c72.113-37.691 121.502-113.113 121.502-199.956 0-124.416-101.218-225.634-225.634-225.634zM225.634 873.236v52.066h-86.804v-104.133h86.804v52.066zM763.668 873.236v52.066h-86.804v-104.133h86.804v52.066zM867.801 855.867h-69.435v-52.066c0-9.61-7.759-17.369-17.369-17.369h-121.462c-9.61 0-17.369 7.759-17.369 17.369v52.066h-381.834v-52.066c0-9.61-7.759-17.369-17.369-17.369h-121.462c-9.61 0-17.369 7.759-17.369 17.369v52.066h-69.435v-138.831h833.103v138.831zM867.801 682.299h-833.103v-676.903h600.891c-2.836 2.993-5.396 6.183-8.113 9.295-1.26 1.497-2.639 2.954-3.86 4.45-3.387 4.135-6.538 8.428-9.57 12.8-1.103 1.536-2.284 3.033-3.308 4.608-2.914 4.332-5.514 8.743-8.074 13.273-1.063 1.812-2.206 3.623-3.19 5.474-2.284 4.254-4.293 8.665-6.302 13.076-1.024 2.245-2.166 4.45-3.111 6.774-1.733 4.096-3.19 8.31-4.647 12.564-0.512 1.497-1.142 2.954-1.615 4.49h-462.297v503.335h659.495v-209.172c5.75 0.473 11.5 0.906 17.369 0.906 6.932 0 13.824-0.433 20.638-1.024 2.402-0.236 4.766-0.551 7.168-0.866 4.254-0.551 8.507-1.182 12.761-1.969 2.954-0.512 5.908-1.103 8.862-1.772 3.23-0.748 6.459-1.615 9.649-2.481 3.466-0.945 6.932-1.851 10.358-2.954v306.097zM468.598 404.598v-121.462h121.502v121.462h-121.502zM590.1 439.335v121.462h-121.502v-121.462h121.502zM468.598 248.399v-121.502h106.969c-0.197 1.339-0.276 2.639-0.473 3.938v0c-0.354 2.796-0.945 5.514-1.221 8.35-0.118 1.142-0.118 2.324-0.197 3.505-0.591 6.341-0.945 12.682-0.945 18.944 0 7.601 0.394 15.163 1.142 22.646 0.354 3.348 1.024 6.577 1.497 9.846 0.591 4.057 1.024 8.153 1.851 12.17 1.024 5.159 2.481 10.201 3.86 15.242 0.551 2.009 0.945 4.057 1.536 6.065 2.048 6.617 4.411 13.076 7.050 19.417 0.158 0.433 0.276 0.866 0.433 1.26v0.118h-121.502zM312.399 404.598v-121.462h121.502v121.462h-121.502zM433.9 439.335v121.462h-121.502v-121.462h121.502zM312.399 248.399v-121.502h121.502v121.502h-121.502zM156.199 404.598v-121.462h121.502v121.462h-121.502zM277.701 439.335v121.462h-121.502v-121.462h121.502zM156.199 248.399v-121.502h121.502v121.502h-121.502zM746.299 404.598h-121.502v-98.974c1.221 1.457 2.599 2.796 3.86 4.214 2.954 3.387 5.908 6.774 9.058 9.964 1.93 1.969 3.978 3.781 5.986 5.671 2.875 2.718 5.79 5.435 8.822 7.995 2.245 1.93 4.569 3.742 6.892 5.553 2.914 2.284 5.829 4.49 8.822 6.617 2.639 1.851 5.278 3.663 8.034 5.435 2.678 1.733 5.435 3.387 8.192 5.002 3.151 1.851 6.302 3.702 9.57 5.435 1.851 0.945 3.742 1.812 5.632 2.678 14.454 7.089 29.775 12.682 45.765 16.542 0.276 0.079 0.551 0.158 0.866 0.236v23.631zM746.299 439.335v121.462h-121.502v-121.462h121.502zM877.253 335.281c-5.868 2.639-11.737 5.002-17.723 7.050-0.433 0.118-0.788 0.276-1.182 0.433-5.868 1.969-11.776 3.545-17.762 4.923-0.67 0.158-1.339 0.354-2.009 0.512-5.632 1.221-11.303 2.087-16.975 2.796-1.063 0.118-2.048 0.354-3.111 0.473-6.656 0.709-13.351 1.063-20.126 1.063-10.752 0-21.189-1.103-31.429-2.836l-0.394-0.039c-27.884-4.687-53.918-15.399-76.564-31.074-0.709-0.512-1.418-1.063-2.166-1.615-4.569-3.269-9.058-6.735-13.351-10.398-1.339-1.142-2.599-2.363-3.899-3.545-3.663-3.308-7.247-6.735-10.634-10.358-1.26-1.3-2.442-2.639-3.623-3.978-3.466-3.82-6.735-7.798-9.886-11.934-0.866-1.182-1.772-2.324-2.599-3.505-3.426-4.766-6.656-9.689-9.689-14.769-0.709-1.221-1.536-2.402-2.206-3.663l-1.733-2.954c-2.56-4.766-4.884-9.649-7.050-14.612-2.284-5.278-4.254-10.634-6.026-16.069-0.236-0.63-0.512-1.3-0.709-1.969-1.812-5.632-3.269-11.382-4.529-17.132-0.118-0.551-0.315-1.103-0.433-1.654-1.221-5.79-2.087-11.697-2.757-17.644-0.039-0.512-0.158-1.024-0.236-1.575-0.67-6.459-0.985-12.997-0.985-19.574 0-7.601 0.512-15.321 1.536-23.119 0.079-0.551 0.158-1.063 0.236-1.615 1.024-7.562 2.481-15.124 4.411-22.764 0.276-1.103 0.551-2.166 0.866-3.23 1.3-4.687 2.796-9.295 4.411-13.824 0.827-2.324 1.615-4.608 2.521-6.892 2.087-5.159 4.45-10.201 6.971-15.163 0.748-1.378 1.339-2.836 2.048-4.254 3.23-5.908 6.853-11.658 10.673-17.211 1.615-2.284 3.308-4.411 4.962-6.617 2.639-3.466 5.278-6.853 8.153-10.122 1.93-2.206 3.86-4.372 5.908-6.498 3.151-3.308 6.459-6.538 9.886-9.61 1.812-1.694 3.584-3.387 5.474-5.002 5.356-4.49 10.949-8.783 16.857-12.761 30.326-20.322 66.796-32.256 105.984-32.256 105.275 0 190.937 85.662 190.937 190.937 0 77.115-46.080 143.557-112.049 173.647zM902.498 142.887h-86.764v-86.764c0-9.61-7.798-17.369-17.369-17.369s-17.369 7.759-17.369 17.369v86.764h-86.764c-9.57 0-17.369 7.759-17.369 17.369 0 9.57 7.798 17.329 17.369 17.329h86.764v86.804c0 9.57 7.798 17.329 17.369 17.329s17.369-7.759 17.369-17.329v-86.804h86.764c9.57 0 17.369-7.759 17.369-17.329 0-9.61-7.798-17.369-17.369-17.369z" />
<glyph unicode="&#xe91e;" glyph-name="fb" horiz-adv-x="431" d="M286.451-64.593h-191.003v512.431h-95.448v176.613h95.448v106.011c0 144.061 53.895 229.753 206.956 229.753h127.461v-176.613h-79.656c-59.608 0-63.542-24.684-63.542-70.764l-0.216-88.387h144.33l-16.923-176.613h-127.407v-512.431z" />
<glyph unicode="&#xe91f;" glyph-name="img_1" horiz-adv-x="1431" d="M1408.209-18.151h-149.944v200.792c56.287 10.196 98.932 56.76 98.932 112.519 0 28.221-11.407 98.48-29.85 162.794-26.448 92.27-55.769 135.245-92.259 135.245-36.501 0-65.811-42.975-92.27-135.245-18.443-64.314-29.85-134.573-29.85-162.794 0-55.758 42.645-102.323 98.932-112.519v-200.792h-151.486v569.267c28.716 9.59 49.46 36.468 49.46 68.057v97.82c0 12.662-10.372 22.924-23.189 22.924h-26.272v27.505h51.002c12.817 0 23.189 10.273 23.189 22.935 0 12.651-10.372 22.924-23.189 22.924h-148.392c-12.806 0-23.189-10.273-23.189-22.924 0-12.662 10.383-22.935 23.189-22.935h51.013v-27.505h-26.283c-12.806 0-23.178-10.262-23.178-22.924v-97.82c0-31.59 20.744-58.467 49.46-68.057v-569.267h-81.072l-15.745 76.426h21.075c12.806 0 23.189 10.262 23.189 22.924s-10.383 22.924-23.189 22.924h-49.273c-0.099 0-0.198 0-0.308 0h-1.431v51.96h26.283c12.806 0 23.189 10.262 23.189 22.924s-10.383 22.924-23.189 22.924h-26.283v27.516h26.283c12.806 0 23.189 10.262 23.189 22.924s-10.383 22.924-23.189 22.924h-445.187c-12.806 0-23.189-10.262-23.189-22.924s10.383-22.924 23.189-22.924h26.272v-27.516h-26.272c-12.806 0-23.189-10.262-23.189-22.924s10.383-22.924 23.189-22.924h26.272v-51.96h-1.453c-0.088 0-0.176 0-0.253 0h-49.295c-12.817 0-23.189-10.262-23.189-22.924s10.372-22.924 23.189-22.924h21.075l-15.756-76.426h-179.993v224.542c97.346 11.385 173.122 93.437 173.122 192.699 0 172.219-168.123 532.392-175.28 547.631-3.799 8.104-12.002 13.279-21.031 13.279s-17.232-5.175-21.031-13.279c-7.157-15.239-175.291-375.412-175.291-547.631 0-99.262 75.776-181.314 173.133-192.699v-224.542h-199.405c-12.806 0-23.189-10.262-23.189-22.924s10.383-22.924 23.189-22.924h1385.021c12.806 0 23.189 10.262 23.189 22.924s-10.383 22.924-23.189 22.924zM1159.344 295.16c0 20.447 9.073 81.623 26.129 143.305 24.796 89.727 45.64 106.188 49.614 108.599 3.964-2.411 24.807-18.872 49.614-108.599 17.045-61.682 26.129-122.858 26.129-143.305 0-30.577-22.11-56.551-52.565-65.459v47.126c0 12.662-10.372 22.924-23.178 22.924-12.817 0-23.189-10.262-23.189-22.924v-47.126c-30.456 8.908-52.554 34.882-52.554 65.459zM1010.941 694.068h52.554v-74.895c0-14.325-11.782-25.974-26.272-25.974s-26.283 11.649-26.283 25.974v74.895zM95.838 399.090c0 127.24 104.25 377.911 149.944 481.676 45.695-103.765 149.944-354.436 149.944-481.676 0-73.948-55.054-135.41-126.756-146.465v73.089c0 0.011 0 0.022 0 0.033v63.851l67.408 66.648c9.051 8.952 9.051 23.464 0 32.416-9.062 8.952-23.739 8.952-32.801 0l-34.607-34.221v42.468c0 12.662-10.383 22.924-23.189 22.924s-23.189-10.262-23.189-22.924v-97.798c0-0.011 0-0.022 0-0.033v-18.003l-34.618 34.221c-9.051 8.963-23.728 8.963-32.79 0-9.051-8.952-9.051-23.464 0-32.416l67.408-66.648v-63.609c-71.702 11.055-126.756 72.517-126.756 146.465zM541.024 229.448h299.878v-27.516h-299.878v27.516zM541.024 156.083h299.878v-51.96h-299.878v51.96zM512.044 58.274h357.849l15.745-76.426h-389.351l15.756 76.426z" />
<glyph unicode="&#xe920;" glyph-name="img_2" horiz-adv-x="1182" d="M1177.25 610.265c-6.284 7.221-17.163 7.921-24.296 1.567-79.793-71.12-92.536-242.399-94.558-297.94h-175.235l-69.203 214.244c-2.319 7.168-8.918 12.008-16.366 12.008h-66.184v34.256c21.583 7.317 37.197 27.928 37.197 52.198v58.517c0 9.619-7.702 17.417-17.207 17.417h-74.393c-9.505 0-17.207-7.798-17.207-17.417v-58.517c0-24.261 15.614-44.881 37.188-52.198v-34.256h-58.464l7.334 187.138c2.652 3.011 4.857 6.118 6.774 8.84 1.899 2.704 4.262 6.065 5.619 7.072 1.435 1.050 5.374 2.319 8.551 3.326 7.929 2.547 18.8 6.021 25.801 15.763 6.967 9.689 6.897 20.716 6.844 29.582-0.018 3.405-0.044 7.641 0.525 9.417 0.481 1.514 2.967 4.892 4.779 7.361 5.024 6.844 11.903 16.218 11.903 28.558 0 12.332-6.879 21.705-11.903 28.549-1.812 2.468-4.289 5.846-4.779 7.361-0.569 1.785-0.543 6.021-0.525 9.426 0.053 8.866 0.123 19.894-6.844 29.573-7.002 9.741-17.872 13.224-25.801 15.763-3.168 1.015-7.115 2.276-8.551 3.326-1.357 1.006-3.72 4.367-5.619 7.072-4.849 6.914-11.509 16.366-22.948 20.13-3.168 1.042-6.555 1.575-10.074 1.575-7.256 0-13.785-2.197-19.544-4.131-3.422-1.147-7.308-2.451-9.286-2.451s-5.864 1.304-9.286 2.451c-5.768 1.934-12.297 4.131-19.552 4.131-3.518 0-6.905-0.534-10.065-1.575-11.448-3.763-18.099-13.216-22.957-20.13-1.899-2.704-4.262-6.065-5.628-7.072-1.427-1.050-5.365-2.311-8.542-3.326-7.938-2.538-18.808-6.013-25.81-15.763-6.949-9.68-6.888-20.699-6.835-29.565 0.018-3.405 0.044-7.641-0.534-9.444-0.49-1.514-2.967-4.884-4.779-7.361-5.024-6.835-11.894-16.209-11.894-28.541 0-12.341 6.87-21.705 11.894-28.549 1.812-2.468 4.297-5.846 4.779-7.369 0.578-1.785 0.551-6.021 0.534-9.426-0.053-8.857-0.114-19.885 6.835-29.565 7.002-9.741 17.872-13.224 25.81-15.763 3.168-1.015 7.115-2.276 8.542-3.335 1.365-0.998 3.728-4.359 5.628-7.063 1.908-2.722 4.122-5.838 6.774-8.848l7.326-187.138h-58.464v34.256c21.583 7.317 37.197 27.928 37.197 52.198v58.517c0 9.619-7.711 17.417-17.215 17.417h-74.384c-9.505 0-17.207-7.798-17.207-17.417v-58.517c0-24.261 15.605-44.881 37.188-52.198v-34.256h-66.192c-7.439 0-14.047-4.84-16.358-12.008l-69.203-214.244h-175.235c-2.022 55.541-14.756 226.82-94.558 297.94-7.133 6.354-18.012 5.654-24.296-1.567-6.275-7.221-5.584-18.222 1.549-24.585 82.2-73.264 83.268-287.061 83.268-289.214v-343.014c0-9.627 7.711-17.417 17.207-17.417 9.505 0 17.215 7.789 17.215 17.417v92.099h217.158v-92.099c0-9.627 7.711-17.417 17.207-17.417 9.514 0 17.215 7.789 17.215 17.417v154.003c43.568-6.547 100.44-12.043 172.697-13.636v-74.673l-78.918-51.007c-6.442-4.166-9.4-12.139-7.256-19.57s8.875-12.533 16.524-12.533h225.227c7.641 0 14.371 5.102 16.515 12.533s-0.805 15.404-7.256 19.57l-78.909 51.007v74.673c72.249 1.593 129.129 7.089 172.697 13.636v-154.003c0-9.627 7.702-17.417 17.207-17.417s17.215 7.789 17.215 17.417v92.099h217.158v-92.099c0-9.627 7.702-17.417 17.215-17.417 9.505 0 17.207 7.789 17.207 17.417v343.022c0 2.144 1.068 215.941 83.268 289.206 7.133 6.363 7.824 17.364 1.549 24.585zM694.219 626.596v41.091h39.962v-41.091c0-11.15-8.962-20.226-19.981-20.226s-19.981 9.076-19.981 20.226zM525.128 779.741c-2.696 0.866-6.625 2.127-8.236 3.107-0.411 1.847-0.385 5.969-0.368 8.787 0.035 6.223 0.079 13.268-2.214 20.401-2.223 6.949-6.293 12.498-9.881 17.382-1.689 2.293-4.42 6.021-5.041 7.772 0.621 1.75 3.352 5.479 5.041 7.772 3.588 4.892 7.658 10.441 9.881 17.382 2.293 7.142 2.249 14.187 2.214 20.41-0.018 2.818-0.044 6.949 0.368 8.787 1.61 0.98 5.54 2.241 8.236 3.098 5.838 1.873 12.463 3.991 18.414 8.385 5.908 4.341 9.899 10.021 13.426 15.036 1.645 2.354 4.043 5.768 5.488 7.028 1.882-0.201 5.356-1.374 8.192-2.328 5.908-1.978 12.586-4.219 20.13-4.219s14.231 2.241 20.13 4.219c2.827 0.954 6.267 2.109 8.192 2.328 1.435-1.269 3.833-4.682 5.479-7.028 3.527-5.006 7.518-10.695 13.426-15.045 5.96-4.385 12.577-6.503 18.414-8.376 2.687-0.858 6.625-2.118 8.236-3.107 0.411-1.838 0.385-5.969 0.368-8.796-0.035-6.214-0.079-13.251 2.206-20.392 2.232-6.94 6.302-12.489 9.89-17.382 1.68-2.284 4.42-6.021 5.041-7.772-0.621-1.75-3.37-5.488-5.050-7.781-3.58-4.884-7.649-10.433-9.881-17.382-2.284-7.124-2.241-14.17-2.206-20.384 0.018-2.827 0.044-6.958-0.376-8.796-1.602-0.989-5.54-2.241-8.236-3.107-5.838-1.873-12.454-3.991-18.414-8.376-5.899-4.35-9.89-10.030-13.417-15.045-1.645-2.346-4.043-5.759-5.488-7.019-1.882 0.201-5.348 1.365-8.183 2.319-5.899 1.978-12.586 4.219-20.13 4.219s-14.222-2.241-20.13-4.219c-2.827-0.945-6.275-2.109-8.201-2.319-1.435 1.26-3.842 4.682-5.488 7.019-3.518 5.015-7.509 10.695-13.408 15.036-5.969 4.394-12.586 6.52-18.423 8.385zM610.943 715.395l-6.87-175.253h-26.606l-6.87 175.253c3.886 0.814 7.518 2.022 10.888 3.151 3.422 1.155 7.308 2.459 9.286 2.459 1.987 0 5.873-1.304 9.295-2.459 3.37-1.129 6.993-2.328 10.879-3.151zM447.357 626.596v41.091h39.962v-41.091c0-11.15-8.962-20.226-19.981-20.226s-19.981 9.076-19.981 20.226zM123.528 279.058h163.595l-13.338-41.293h-150.257v41.293zM340.686 80.393h-217.158v122.53h139.001l-14.651-45.354c-2.722-8.437 1.252-17.592 9.225-21.268 1.96-0.901 27.228-12.209 83.592-23.001v-32.908h-0.009zM644.455-29.123h-107.371l37.197 24.042c4.945 3.195 7.947 8.735 7.947 14.677v83.784c2.827-0.009 5.663-0.026 8.542-0.026 2.871 0 5.706 0.018 8.542 0.026v-83.784c0-5.943 3.002-11.474 7.947-14.677l37.197-24.042zM607.985 128.276v228.606c0 9.627-7.711 17.426-17.215 17.426s-17.207-7.798-17.207-17.426v-228.597c-69.431 0.613-125.313 4.901-169.284 10.441l47.279 214.366c2.074 9.382-3.772 18.695-13.049 20.795-9.269 2.092-18.467-3.816-20.541-13.207l-47.874-217.053c-41.835 6.783-69.229 14.301-84.309 19.167l110.636 342.515h388.691l110.645-342.506c-15.097-4.884-42.492-12.393-84.283-19.176l-47.892 217.053c-2.074 9.391-11.282 15.299-20.55 13.207-9.277-2.101-15.115-11.413-13.041-20.795l47.288-214.366c-43.962-5.549-99.853-9.837-169.293-10.45zM1058.011 80.393h-217.158v32.908c56.364 10.791 81.631 22.099 83.583 23.001 7.973 3.676 11.947 12.831 9.234 21.268l-14.651 45.354h138.993v-122.53zM1058.011 237.765h-150.257l-13.338 41.293h163.595v-41.293z" />
<glyph unicode="&#xe921;" glyph-name="img_3" horiz-adv-x="1044" d="M1029.022 897.712c-25.815-5.364-56.193-24.966-66.277-32.466-17.037-14.16-57.929-29.023-102.185-37.118-33.899-6.183-42.394-13.371-62.922-30.73-2.506-2.116-5.149-4.35-7.987-6.71-3.374-2.809-7.48-4.174-11.557-4.174-5.198 0-10.347 2.224-13.926 6.524-6.388 7.695-5.335 19.115 2.35 25.502 2.76 2.292 5.325 4.457 7.753 6.515 21.914 18.539 36.396 30.779 79.794 38.697 44.929 8.212 77.151 22.167 85.684 29.462l0.878 0.702c1.687 1.268 41.711 31.081 81.042 39.244 9.821 2.028 19.368-4.262 21.397-14.053s-4.262-19.378-14.043-21.397zM836.237 890.553c-33.899-6.193-42.394-13.371-62.922-30.73-2.506-2.116-5.149-4.359-7.987-6.71-3.384-2.809-7.48-4.184-11.557-4.184-5.198 0-10.347 2.224-13.926 6.534-6.388 7.685-5.335 19.105 2.35 25.493 2.76 2.302 5.325 4.467 7.753 6.524 21.914 18.53 36.396 30.769 79.794 38.697 44.919 8.202 77.141 22.157 85.675 29.452 7.607 6.495 19.027 5.598 25.522-2.019 6.485-7.597 5.588-19.027-2.019-25.522-16.725-14.287-57.997-29.374-102.683-37.537zM355.523 410.063c19.134-20.86 54.243-50.654 118.882-89.751 16.091-9.723 25.854-25.737 27.511-45.076 1.57-18.286-4.408-38.512-15.555-55.316 49.503-33.743 101.366-52.175 154.253-54.73 126.293-6.095 276.578-23.991 275.358-74.576-0.234-9.83-6.066-18.403-16.286-25.824 13.488-8.329 21.543-18.471 21.543-30.798 0-51.268-144.384-69.534-279.513-69.534-75.6 0-146.549-0.839-209.15-1.58-32.924-0.38-62.581-0.731-88.435-0.897-5.296-15.116-19.641-25.98-36.562-25.98-10.513 0-20.041 4.203-27.024 11.001-0.468-0.068-0.936-0.146-1.414-0.146h-23.269c-5.715 0-10.347 4.632-10.347 10.347s4.632 10.347 10.347 10.347h13.624c-0.449 2.35-0.702 4.769-0.702 7.246 0 2.389 0.244 4.71 0.663 6.973h-13.585c-5.715 0-10.347 4.632-10.347 10.347s4.632 10.347 10.347 10.347h23.269c0.39 0 0.761-0.068 1.141-0.117 7.012 6.953 16.647 11.254 27.297 11.254 16.833 0 31.12-10.757 36.484-25.756 25.766 0.176 55.355 0.517 88.21 0.907 62.669 0.731 133.705 1.57 209.452 1.57 102.176 0 163.245 9.431 196.491 17.359 46.997 11.196 57.168 23.786 57.168 26.312 0 3.735-7.285 9.899-24.488 16.404-52.614-19.115-143.477-26.673-230.254-26.673-81.569 0-150.577 2.974-199.573 8.592-65.624 7.519-78.458 17.232-78.458 31.461 0 14.102 12.542 23.669 76.644 30.847 47.991 5.374 117.009 8.212 199.582 8.212 45.807 0 163.245-2.36 231.385-24.937 13.049 5.364 19.241 10.289 19.924 13.439-2.028 9.245-52.448 38.444-250.763 48.021-58.729 2.828-116.014 23.396-170.335 61.060-15.467-12.932-36.884-20.080-60.562-20.080 0 0 0 0-0.010 0-21.25 0-41.838 5.725-57.968 16.121-47.221 30.457-115.039 81.403-165.478 173.592-76.449 13.341-140.854 65.146-169.838 139.527-22.606 58.007-19.992 123.407 7.158 179.415 27.141 56.018 76.849 98.567 136.368 116.736l1.892 0.468 508.616 96.978 93.691-240.435-407.386-252.674zM638.83 76.971c-133.237 0-201.601-7.236-232.36-13.351 34.036-6.914 109.266-14.034 234.164-14.034 81.481 0 139.654 6.281 179.22 14.151-40.287 7.47-98.918 13.234-181.024 13.234zM370.113 226.894c10.201-6.573 24.186-10.347 38.366-10.347 15.272 0 29.091 4.398 37.927 12.064 12.503 10.854 20.675 29.16 19.446 43.535-0.663 7.831-3.989 13.449-10.172 17.184-61.001 36.893-105.082 70.89-131.345 101.269l-3.14-1.824c-3.745-1.794-7.519-3.472-11.313-5.052-1.424-0.595-2.867-1.102-4.291-1.658-2.38-0.936-4.749-1.882-7.139-2.731-1.843-0.653-3.696-1.209-5.549-1.804-2.009-0.653-4.008-1.336-6.027-1.931-2.077-0.614-4.184-1.131-6.271-1.677-1.804-0.468-3.599-0.975-5.413-1.395-2.282-0.536-4.574-0.985-6.866-1.443-1.648-0.332-3.287-0.692-4.935-0.985-2.448-0.439-4.905-0.78-7.363-1.141-1.512-0.215-3.023-0.449-4.535-0.634-2.594-0.322-5.198-0.556-7.802-0.78-1.404-0.117-2.789-0.254-4.194-0.351-2.731-0.185-5.461-0.293-8.202-0.371-0.868-0.029-1.716-0.107-2.584-0.117 43.983-71.017 97.894-111.753 141.4-139.81zM646.427 861.959l-478.071-91.156c-50.215-15.594-90.483-50.235-113.44-97.602-23.113-47.67-25.239-101.113-6.007-150.469 24.693-63.381 80.057-107.208 145.515-117.526l4.008-0.536c0.556-0.078 1.112-0.117 1.668-0.185 3.794-0.497 7.607-0.907 11.43-1.17 1.092-0.068 2.214-0.068 3.316-0.117 3.189-0.166 6.378-0.332 9.548-0.332 27.882 0.010 54.886 6.115 80.282 18.139l413.579 256.634-71.826 184.32zM821.316 736.612c-2.497-2.116-5.14-4.35-7.968-6.7-3.384-2.818-7.48-4.184-11.557-4.184-5.198 0-10.347 2.224-13.926 6.534-6.388 7.685-5.344 19.105 2.341 25.493 2.75 2.292 5.315 4.457 7.743 6.505 21.914 18.539 36.396 30.779 79.794 38.717 44.929 8.202 77.151 22.157 85.684 29.442 7.597 6.495 19.017 5.598 25.512-1.999 6.495-7.607 5.598-19.037-1.999-25.532-16.725-14.287-57.988-29.374-102.693-37.537-33.909-6.193-42.403-13.38-62.932-30.74z" />
<glyph unicode="&#xe922;" glyph-name="instagram" d="M131.392 960.064h761.216c72.256 0 131.392-53.504 131.392-131.456v-761.216c0-77.888-59.136-131.456-131.392-131.456h-761.216c-72.32 0-131.456 53.568-131.456 131.456v761.216c0 77.952 59.136 131.456 131.456 131.456v0zM745.984 846.272c-25.408 0-46.144-20.736-46.144-46.080v-110.4c0-25.344 20.736-46.080 46.144-46.080h115.712c25.344 0 46.080 20.736 46.080 46.080v110.4c0 25.344-20.736 46.080-46.080 46.080h-115.712zM908.288 526.976h-90.112c8.512-27.84 13.12-57.344 13.12-87.872 0-170.304-142.528-308.416-318.336-308.416s-318.272 138.112-318.272 308.416c0 30.528 4.544 60.032 13.12 87.872h-94.080v-432.576c0-22.4 18.368-40.704 40.704-40.704h713.152c22.4 0 40.704 18.304 40.704 40.704v432.576zM512.96 649.536c-113.6 0-205.696-89.216-205.696-199.296s92.096-199.296 205.696-199.296c113.6 0 205.696 89.216 205.696 199.296s-92.096 199.296-205.696 199.296z" />
<glyph unicode="&#xe923;" glyph-name="people_1" horiz-adv-x="469" d="M399.294 259.055v-219.272c0-57.115-47.052-103.549-104.935-103.549h-119.965c-57.883 0-104.935 46.434-104.935 103.549v219.059c-42.191 22.386-69.523 66.325-69.523 114.443v166.762c0 71.762 59.14 130.135 131.84 130.135v0.213h205.201c72.7 0 131.84-58.373 131.84-130.135v-166.762c0-48.118-27.332-92.058-69.523-114.443zM416.904 540.26c0 43.3-35.838 78.648-79.501 78.861h-205.201c-44.089 0-79.906-35.348-79.906-78.861v-166.975c0-32.832 20.978-62.552 52.361-73.851 10.169-3.774 16.949-13.389 16.949-24.048v-235.389c0-28.867 23.75-52.297 53-52.297h119.965c29.272 0 53 23.43 53 52.297v235.581c0 10.681 6.78 20.296 16.97 24.070 31.361 11.299 52.361 40.998 52.361 73.851v166.762zM234.387 697.577c-73.361 0-132.927 58.799-132.927 131.201 0 72.38 59.567 131.179 132.927 131.179 73.339 0 132.906-58.799 132.906-131.179 0-72.401-59.567-131.201-132.906-131.201zM234.387 908.684c-44.728 0-80.993-35.774-80.993-79.906 0-44.153 36.265-79.927 80.993-79.927s80.972 35.774 80.972 79.927c0 44.131-36.243 79.906-80.972 79.906z" />
<glyph unicode="&#xe924;" glyph-name="people_2" horiz-adv-x="752" d="M683.593 258.999v-219.032c0-57.135-46.435-103.57-103.528-103.57h-118.366c-14.211 0-25.725 11.515-25.725 25.725 0 14.232 11.515 25.746 25.725 25.746h118.366c28.86 0 52.287 23.427 52.287 52.287v235.165c0 10.679 6.687 20.292 16.739 24.054 30.95 11.306 51.66 41.023 51.66 73.853v166.954c0 43.53-35.359 78.869-78.848 78.869h-111.888c-14.232 0-25.725 11.515-25.725 25.746s11.494 25.725 25.725 25.725h111.888c71.931-0.418 130.278-58.786 130.278-130.341v-166.745c0-48.107-26.979-92.056-68.587-114.437zM533.859 697.522c-72.37 0-131.135 58.786-131.135 131.176s58.765 131.176 131.135 131.176c72.349 0 131.114-58.786 131.114-131.176s-58.765-131.176-131.114-131.176zM533.859 908.612c-44.136 0-79.893-35.777-79.893-79.914 0-44.157 35.756-79.935 79.893-79.935 44.116 0 79.893 35.777 79.893 79.935 0 44.136-35.777 79.914-79.893 79.914zM231.445 697.522c-72.349 0-131.114 58.786-131.114 131.176s58.765 131.176 131.114 131.176c72.37 0 131.135-58.786 131.135-131.176s-58.765-131.176-131.135-131.176zM231.445 908.612c-44.116 0-79.872-35.777-79.872-79.914 0-44.157 35.756-79.935 79.872-79.935 44.136 0 79.893 35.777 79.893 79.935 0 44.136-35.756 79.914-79.893 79.914zM332.675 670.104c71.722 0 129.86-58.368 130.069-129.923v-166.745c0-48.107-26.979-92.056-68.587-114.437v-219.261c0-57.114-46.435-103.549-103.528-103.549h-118.366c-57.093 0-103.508 46.435-103.508 103.549v219.052c-41.629 22.382-68.608 66.33-68.608 114.437v166.745c0 71.764 58.347 130.132 130.090 130.132h202.439zM51.597 540.181v-166.954c0-32.831 20.71-62.548 51.66-73.853 10.031-3.762 16.739-13.375 16.739-24.054v-235.353c0-28.881 23.406-52.308 52.266-52.308h118.366c28.86 0 52.287 23.427 52.287 52.308v235.562c0 10.679 6.687 20.292 16.739 24.054 30.95 11.306 51.66 41.023 51.66 73.853h0.418v166.745c0 43.53-35.359 78.869-78.848 78.869h-202.439c-43.51 0-78.848-35.338-78.848-78.869z" />
<glyph unicode="&#xe925;" glyph-name="people_3" horiz-adv-x="1025" d="M957.356 258.973v-219.191c0-57.255-45.858-103.845-102.172-103.845h-116.392c-14.241 0-25.763 11.689-25.763 26.16s11.522 26.181 25.763 26.181h116.392c28.063 0 50.877 23.191 50.877 51.713v235.376c0 10.853 6.692 20.639 16.75 24.466 30.342 11.292 50.668 40.86 50.668 73.419v166.641c0 43.203-34.545 78.312-77.058 78.312h-110.118c-14.22 0-25.742 11.71-25.742 26.181s11.522 26.16 25.742 26.16h110.118c70.763 0 128.332-58.3 128.332-130.235v-166.62c0-48.096-26.369-92.156-67.397-114.719zM809.556 697.146c-71.391 0-129.378 58.949-129.378 131.531 0 72.562 57.987 131.51 129.378 131.51s129.378-58.949 129.378-131.51c0-72.583-57.987-131.531-129.378-131.531zM809.556 908.057c-43.14 0-78.103-35.549-78.103-79.379 0-43.851 34.964-79.379 78.103-79.379 43.119 0 78.082 35.528 78.082 79.379 0 43.83-34.964 79.379-78.082 79.379zM512.282 697.146c-71.391 0-129.398 58.949-129.398 131.531 0 72.562 58.008 131.51 129.398 131.51 71.37 0 129.378-58.949 129.378-131.51 0-72.583-58.008-131.531-129.378-131.531zM512.282 908.057c-43.14 0-78.103-35.758-78.103-79.379 0-43.851 34.964-79.379 78.103-79.379 43.119 0 78.082 35.528 78.082 79.379 0 43.83-34.964 79.379-78.082 79.379zM214.988 697.146c-71.37 0-129.378 58.949-129.378 131.531 0 72.562 58.008 131.51 129.378 131.51 71.391 0 129.378-58.949 129.378-131.51 0-72.583-58.196-131.531-129.378-131.531zM214.988 908.057c-43.119 0-78.082-35.758-78.082-79.379 0-43.851 34.964-79.379 78.082-79.379 43.14 0 78.103 35.528 78.103 79.379 0 43.83-34.964 79.379-78.103 79.379zM238.032 670.986c14.22 0 25.742-11.71 25.742-26.181s-11.522-26.181-25.742-26.181h-109.7c-42.512 0-77.037-35.11-77.037-78.312v-166.62c0-32.789 20.305-62.148 50.438-73.44 10.058-3.827 16.75-13.613 16.75-24.466v-235.146c0-28.523 22.814-51.713 50.877-51.713h116.392c14.241 0 25.763-11.71 25.763-26.181s-11.522-26.181-25.763-26.181h-116.392c-56.314 0-102.172 46.611-102.172 104.075v218.543c-41.028 22.563-67.397 66.623-67.397 114.719v166.62c0 71.934 57.569 130.465 128.332 130.465h109.909zM284.288 540.312c0 71.934 57.569 130.465 128.332 130.465h199.095c70.763 0 128.332-58.53 128.332-130.465v-166.62c0-48.096-26.39-92.156-67.418-114.719v-218.564c0-57.234-45.837-103.845-102.151-103.845h-116.413c-56.314 0-102.151 46.611-102.36 103.845v218.564c-41.028 22.563-67.418 66.623-67.418 114.719v166.62zM335.792 373.692c0-32.559 20.305-62.148 51.086-73.44 10.037-3.827 16.75-13.613 16.75-24.466v-235.376c0-28.502 22.814-51.713 50.856-51.713h116.413c28.042 0 50.856 23.211 50.856 51.713v235.376c0 10.853 6.712 20.639 16.75 24.466 30.154 11.292 50.459 40.881 50.459 73.44v166.62c0 43.203-34.545 78.312-77.037 78.312h-199.095c-42.492 0-77.037-35.11-77.037-78.312v-166.62z" />
<glyph unicode="&#xe926;" glyph-name="tel" horiz-adv-x="1026" d="M990.135 219.502c-43.008 43.301-85.943 86.016-127.634 127.269-22.674 22.382-49.152 34.231-76.873 34.231s-54.199-11.849-76.581-34.011l-5.778-5.778c-22.601-22.382-46.080-45.641-68.754-68.901-4.681 2.341-9.289 4.681-13.751 7.022-10.386 5.047-20.334 9.947-29.038 15.433-68.096 42.642-130.779 99.547-191.342 174.153-29.403 36.133-49.957 68.315-64.293 100.864 20.041 19.456 39.79 39.278 59.026 58.734 4.827 4.901 9.947 9.947 14.848 14.848 47.177 47.323 46.958 108.617-0.219 156.16-14.409 14.629-29.257 29.184-43.447 43.374-6.29 6.363-12.654 12.654-19.017 19.017-6.802 6.729-13.312 13.312-20.114 20.114-14.409 14.555-29.403 29.55-44.471 44.178-22.601 22.162-49.298 33.792-76.8 33.792s-54.199-11.63-76.654-33.792c-10.752-10.825-21.797-21.577-32.183-32.183-15.214-15.433-31.086-31.232-46.958-46.519-29.623-28.087-46.153-63.561-49.298-105.691-4.901-66.121 13.531-125.952 30.062-170.789 37.669-101.23 95.232-197.193 176.055-293.376 100.791-119.662 222.062-214.382 360.521-281.819 76.142-37.010 141.605-55.808 205.312-59.392 4.608-0.219 9.289-0.439 13.751-0.439 53.76 0 98.011 19.017 131.438 56.247 14.409 16.018 29.842 31.086 46.153 46.885 8.265 8.046 16.677 16.311 25.161 24.795 47.397 47.543 47.616 108.398 0.878 155.575zM949.029 104.082c-8.046-8.046-16.311-16.091-24.357-24.137-16.238-15.872-33.207-32.329-48.859-49.883-24.795-27.648-56.101-39.278-99.474-37.010-56.101 3.218-114.322 20.114-183.515 53.687-131.218 63.854-246.418 153.746-341.87 267.045-76.581 91.063-130.999 181.394-166.327 276.48-21.797 58.368-29.842 103.57-26.697 146.505 2.121 27.721 12.507 50.322 31.744 68.462 16.311 16.311 32.402 32.622 48.055 48.201 10.386 10.386 20.992 21.138 31.525 31.744 8.046 8.046 20.992 17.554 36.645 17.554s28.526-9.509 36.791-17.554c14.629-14.409 29.623-29.403 43.813-43.739 6.802-6.802 13.385-13.531 20.114-20.114 6.363-6.363 12.727-12.654 19.090-19.017 14.19-14.19 28.745-28.745 43.154-43.154 25.381-25.527 25.6-50.322 0.219-75.63-4.901-5.12-9.947-9.947-14.848-15.067-20.48-20.699-41.911-42.277-63.269-62.757-10.606-10.167-20.919-27.502-10.606-52.443 16.53-39.497 40.448-77.97 75.191-120.686 64.512-79.287 131.877-140.361 205.312-186.441 11.41-7.168 23.040-12.873 34.304-18.432 6.729-3.145 12.873-6.29 19.017-9.655 7.607-4.242 15.287-6.144 22.894-6.144v0c12.069 0 23.259 5.266 33.207 15.433 23.918 24.722 48.933 49.225 72.777 73.143l5.778 5.705c8.046 8.046 20.919 17.554 36.352 17.554 15.506 0 28.379-9.509 36.645-17.554 41.472-41.253 84.48-83.968 127.195-127.049 24.795-24.357 24.576-50.322 0-75.045z" />
<glyph unicode="&#xe927;" glyph-name="vk" horiz-adv-x="866" d="M865.359 249.817v0c0-50.885-10.082-95.626-30.484-134.144-20.322-38.439-47.498-70.105-81.999-95.468-40.566-30.169-85.15-51.594-133.986-64.433-48.601-12.918-110.198-19.298-185.344-19.298h-432.443v1023.055h381.716c79.242 0 139.5-2.757 180.303-8.665 40.96-5.593 79.321-17.566 115.003-35.84 38.597-19.692 67.584-46.238 86.646-79.084 19.141-33.004 28.751-71.050 28.751-114.215 0-49.94-13.154-94.287-39.621-133.199-26.23-38.991-62.622-67.584-109.017-86.095v-5.356c66.639-13.391 120.202-40.409 160.295-81.447s60.18-96.335 60.18-165.809zM517.829 670.129c0 16.62-4.49 33.556-13.391 50.885s-22.764 30.011-41.826 37.73c-17.881 7.562-38.912 11.5-63.409 12.288-24.497 0.63-60.967 0.945-109.253 0.945h-18.905v-216.537h34.186c46.395 0 79.084 0.473 97.674 1.418 18.511 0.945 37.888 5.671 57.738 14.257 21.504 9.689 36.628 23.001 44.741 39.936 8.192 17.093 12.446 36.864 12.446 59.077v0zM585.886 254.543c0 31.665-6.617 56.32-20.244 74.122-13.627 18.038-33.95 31.429-60.967 40.487-16.384 6.223-39.148 9.531-67.82 10.161-28.751 0.709-67.426 0.945-115.712 0.945h-50.097v-256.158h14.651c70.577 0 119.414 0.473 146.432 1.418s54.745 7.010 82.708 18.511c24.812 10.161 42.614 24.891 54.036 44.347s17.014 41.511 17.014 66.166z" />
<glyph unicode="&#xe928;" glyph-name="zoom" horiz-adv-x="1025" d="M1025.047 22.031l-85.377-86.118-232.977 235.070c-74.345-58.757-167.68-94.141-269.234-94.141-241.414 0-437.786 198.137-437.786 441.688 0 243.595 196.371 441.732 437.786 441.732s437.786-198.137 437.786-441.732c0-97.215-31.678-186.909-84.636-259.946l234.438-236.553zM437.459 838.432c-174.765 0-317.046-143.501-317.046-319.902 0-176.357 142.28-319.88 317.046-319.88s317.046 143.523 317.046 319.88c0 176.401-142.28 319.902-317.046 319.902zM501.448 350.915h-130.812v109.010h-109.010v130.812h109.010v109.010h130.812v-109.010h109.010v-130.812h-109.010v-109.010z" />
<glyph unicode="&#xe929;" glyph-name="menu-alt" d="M128 640h768c35.328 0 64 28.672 64 64s-28.672 64-64 64h-768c-35.328 0-64-28.672-64-64s28.672-64 64-64zM896 512h-768c-35.328 0-64-28.672-64-64s28.672-64 64-64h768c35.328 0 64 28.672 64 64s-28.672 64-64 64zM896 256h-768c-35.328 0-64-28.672-64-64s28.672-64 64-64h768c35.328 0 64 28.672 64 64s-28.672 64-64 64z" />
</font>
</defs>
</svg>
